<svg width="32" height="32" viewBox="0 0 32 32" fill="none" xmlns="http://www.w3.org/2000/svg">
  <path d="M8.93359 12.3467L16.0002 16.44L23.0136 12.3733" stroke="white" stroke-width="1.5" stroke-linecap="round" stroke-linejoin="round" />
  <path d="M16 23.6934V16.4268" stroke="white" stroke-width="1.5" stroke-linecap="round" stroke-linejoin="round" />
  <path d="M14.347 8.3868L10.0803 10.7601C9.12032 11.2935 8.32031 12.6401 8.32031 13.7468V18.2668C8.32031 19.3735 9.10699 20.7201 10.0803 21.2535L14.347 23.6268C15.2537 24.1335 16.747 24.1335 17.667 23.6268L21.9337 21.2535C22.8937 20.7201 23.6936 19.3735 23.6936 18.2668V13.7335C23.6936 12.6268 22.907 11.2801 21.9337 10.7468L17.667 8.37347C16.747 7.8668 15.2537 7.8668 14.347 8.3868Z" stroke="white" stroke-width="1.5" stroke-linecap="round" stroke-linejoin="round" />
  <path d="M29.3333 20C29.3333 25.16 25.16 29.3333 20 29.3333L21.4 27" stroke="#B6FB0D" stroke-width="1.5" stroke-linecap="round" stroke-linejoin="round" />
  <path d="M2.66699 11.9998C2.66699 6.83984 6.84033 2.6665 12.0003 2.6665L10.6003 4.99984" stroke="#B6FB0D" stroke-width="1.5" stroke-linecap="round" stroke-linejoin="round" />
</svg>