<svg width="76" height="76" viewBox="0 0 76 76" fill="none" xmlns="http://www.w3.org/2000/svg">
<path d="M41.7997 67.6721C39.7097 70.4588 36.2896 70.4588 34.1996 67.6721L29.4496 61.3388C28.9113 60.6421 27.7713 60.0721 26.9163 60.0721H25.333C12.6663 60.0721 6.33301 56.9054 6.33301 41.0721V25.2388C6.33301 12.5721 12.6663 6.23877 25.333 6.23877H50.6663C63.333 6.23877 69.6663 12.5721 69.6663 25.2388V41.0721" stroke="#B6FB0D" stroke-width="4" stroke-miterlimit="10" stroke-linecap="round" stroke-linejoin="round"/>
<path d="M20.5 43.4448L31.6593 19.4026H35.1444L46.339 43.4448H42.6426L32.6802 21.3259H34.0883L24.1259 43.4448H20.5ZM25.2524 37.4343L26.2029 34.6866H40.0728L41.0937 37.4343H25.2524Z" fill="#B6FB0D"/>
<path d="M49.5221 43.4448V25.2414H52.9016V43.4448H49.5221ZM51.2118 21.7381C50.5547 21.7381 50.0032 21.532 49.5573 21.1199C49.1348 20.7077 48.9236 20.204 48.9236 19.6086C48.9236 18.9904 49.1348 18.4752 49.5573 18.0631C50.0032 17.6509 50.5547 17.4448 51.2118 17.4448C51.8689 17.4448 52.4087 17.6509 52.8311 18.0631C53.277 18.4523 53.5 18.9446 53.5 19.5399C53.5 20.1582 53.2888 20.6848 52.8663 21.1199C52.4439 21.532 51.8924 21.7381 51.2118 21.7381Z" fill="#B6FB0D"/>
<path d="M57.6334 67.7667C63.2299 67.7667 67.7666 63.2298 67.7666 57.6333C67.7666 52.0368 63.2299 47.5 57.6334 47.5C52.0369 47.5 47.5 52.0368 47.5 57.6333C47.5 63.2298 52.0369 67.7667 57.6334 67.7667Z" stroke="#B6FB0D" stroke-width="3" stroke-linecap="round" stroke-linejoin="round"/>
<path d="M69.6667 69.6667L66.5 66.5" stroke="#B6FB0D" stroke-width="3" stroke-linecap="round" stroke-linejoin="round"/>
</svg>
