<svg width="22" height="22" viewBox="0 0 22 22" fill="none" xmlns="http://www.w3.org/2000/svg">
<path d="M11.3391 1.97102L19.5891 5.27099C19.9099 5.39933 20.1666 5.78432 20.1666 6.12349V9.16683C20.1666 9.67099 19.7541 10.0835 19.2499 10.0835H2.74992C2.24575 10.0835 1.83325 9.67099 1.83325 9.16683V6.12349C1.83325 5.78432 2.08992 5.39933 2.41076 5.27099L10.6608 1.97102C10.8441 1.89768 11.1557 1.89768 11.3391 1.97102Z" stroke="white" stroke-miterlimit="10" stroke-linecap="round" stroke-linejoin="round"/>
<path d="M20.1666 20.1667H1.83325V17.4167C1.83325 16.9125 2.24575 16.5 2.74992 16.5H19.2499C19.7541 16.5 20.1666 16.9125 20.1666 17.4167V20.1667Z" stroke="white" stroke-miterlimit="10" stroke-linecap="round" stroke-linejoin="round"/>
<path d="M3.66675 16.5002V10.0835" stroke="white" stroke-miterlimit="10" stroke-linecap="round" stroke-linejoin="round"/>
<path d="M7.33325 16.5002V10.0835" stroke="white" stroke-miterlimit="10" stroke-linecap="round" stroke-linejoin="round"/>
<path d="M11 16.5002V10.0835" stroke="white" stroke-miterlimit="10" stroke-linecap="round" stroke-linejoin="round"/>
<path d="M14.6667 16.5002V10.0835" stroke="white" stroke-miterlimit="10" stroke-linecap="round" stroke-linejoin="round"/>
<path d="M18.3333 16.5002V10.0835" stroke="white" stroke-miterlimit="10" stroke-linecap="round" stroke-linejoin="round"/>
<path d="M0.916748 20.1665H21.0834" stroke="white" stroke-miterlimit="10" stroke-linecap="round" stroke-linejoin="round"/>
<path d="M11 7.7915C11.7594 7.7915 12.375 7.1759 12.375 6.4165C12.375 5.65711 11.7594 5.0415 11 5.0415C10.2406 5.0415 9.625 5.65711 9.625 6.4165C9.625 7.1759 10.2406 7.7915 11 7.7915Z" stroke="white" stroke-miterlimit="10" stroke-linecap="round" stroke-linejoin="round"/>
</svg>
