<svg width="46" height="46" viewBox="0 0 46 46" fill="none" xmlns="http://www.w3.org/2000/svg">
  <circle cx="23" cy="23" r="23" fill="black" />
  <circle cx="23" cy="23" r="15" fill="white" />
  <path d="M23 8C31.2845 8 38 14.7155 38 23C38 31.2845 31.2845 38 23 38C14.7155 38 8 31.2845 8 23C8 14.7155 14.7155 8 23 8ZM23 11C19.8174 11 16.7652 12.2643 14.5147 14.5147C12.2643 16.7652 11 19.8174 11 23C11 26.1826 12.2643 29.2349 14.5147 31.4854C16.7652 33.7357 19.8174 35 23 35C26.1826 35 29.2349 33.7357 31.4854 31.4854C33.7357 29.2349 35 26.1826 35 23C35 19.8174 33.7357 16.7652 31.4854 14.5147C29.2349 12.2643 26.1826 11 23 11ZM23 15.5C24.5789 15.5006 26.1173 15.9995 27.396 16.9255C28.6748 17.8516 29.6288 19.1576 30.122 20.6574C30.615 22.1573 30.6222 23.7746 30.1425 25.2788C29.6628 26.783 28.7206 28.0976 27.4502 29.035C26.1797 29.9725 24.6458 30.485 23.0669 30.4997C21.4881 30.5144 19.945 30.0305 18.6573 29.1168C17.3696 28.2032 16.4031 26.9065 15.8954 25.4114C15.3878 23.9165 15.3649 22.2994 15.83 20.7905C16.1809 21.5746 16.7904 22.2143 17.5566 22.6028C18.3228 22.9911 19.1991 23.1047 20.0388 22.9242C20.8787 22.7438 21.6311 22.2803 22.1702 21.6115C22.7092 20.9426 23.0021 20.109 23 19.25C23.0001 18.5277 22.7918 17.8207 22.3999 17.214C22.0079 16.6073 21.449 16.1267 20.7905 15.83C21.4895 15.6155 22.2305 15.5 23 15.5Z" fill="black" />
</svg>