<svg width="48" height="48" viewBox="0 0 48 48" fill="none" xmlns="http://www.w3.org/2000/svg">
  <path d="M15.9997 44H31.9997C40.0397 44 41.4797 40.78 41.8997 36.86L43.3997 20.86C43.9397 15.98 42.5397 12 33.9997 12H13.9997C5.45965 12 4.05965 15.98 4.59965 20.86L6.09965 36.86C6.51965 40.78 7.95965 44 15.9997 44Z" stroke="white" stroke-width="1.5" stroke-miterlimit="10" stroke-linecap="round" stroke-linejoin="round" />
  <path d="M16 12V10.4C16 6.86 16 4 22.4 4H25.6C32 4 32 6.86 32 10.4V12" stroke="white" stroke-width="1.5" stroke-miterlimit="10" stroke-linecap="round" stroke-linejoin="round" />
  <path d="M28 26V28C28 28.02 28 28.02 28 28.04C28 30.22 27.98 32 24 32C20.04 32 20 30.24 20 28.06V26C20 24 20 24 22 24H26C28 24 28 24 28 26Z" stroke="#B6FB0D" stroke-width="1.5" stroke-miterlimit="10" stroke-linecap="round" stroke-linejoin="round" />
  <path d="M43.3 22C38.68 25.36 33.4 27.36 28 28.04" stroke="white" stroke-width="1.5" stroke-miterlimit="10" stroke-linecap="round" stroke-linejoin="round" />
  <path d="M5.24023 22.54C9.74023 25.62 14.8202 27.48 20.0002 28.06" stroke="white" stroke-width="1.5" stroke-miterlimit="10" stroke-linecap="round" stroke-linejoin="round" />
</svg>