<svg width="48" height="49" viewBox="0 0 48 49" fill="none" xmlns="http://www.w3.org/2000/svg">
  <path d="M16.0001 44.5H32.0001C40.0401 44.5 41.4801 41.28 41.9001 37.36L43.4001 21.36C43.9401 16.48 42.5401 12.5 34.0001 12.5H14.0001C5.46014 12.5 4.06014 16.48 4.60014 21.36L6.10014 37.36C6.52014 41.28 7.96014 44.5 16.0001 44.5Z" stroke="#040404" stroke-width="1.5" stroke-miterlimit="10" stroke-linecap="round" stroke-linejoin="round" />
  <path d="M16 12.5V10.9C16 7.36 16 4.5 22.4 4.5H25.6C32 4.5 32 7.36 32 10.9V12.5" stroke="#040404" stroke-width="1.5" stroke-miterlimit="10" stroke-linecap="round" stroke-linejoin="round" />
  <path d="M28 26.5V28.5C28 28.52 28 28.52 28 28.54C28 30.72 27.98 32.5 24 32.5C20.04 32.5 20 30.74 20 28.56V26.5C20 24.5 20 24.5 22 24.5H26C28 24.5 28 24.5 28 26.5Z" stroke="#040404" stroke-width="1.5" stroke-miterlimit="10" stroke-linecap="round" stroke-linejoin="round" />
  <path d="M43.3 22.5C38.68 25.86 33.4 27.86 28 28.54" stroke="#040404" stroke-width="1.5" stroke-miterlimit="10" stroke-linecap="round" stroke-linejoin="round" />
  <path d="M5.24023 23.04C9.74023 26.12 14.8202 27.98 20.0002 28.56" stroke="#040404" stroke-width="1.5" stroke-miterlimit="10" stroke-linecap="round" stroke-linejoin="round" />
</svg>