<svg width="33" height="32" viewBox="0 0 33 32" fill="none" xmlns="http://www.w3.org/2000/svg">
  <path d="M3.19238 22.7467H16.5257" stroke="#B6FB0D" stroke-width="2" stroke-miterlimit="10" stroke-linecap="round" stroke-linejoin="round" />
  <path d="M6.15234 18H13.5658C15.9391 18 16.5257 18.5867 16.5257 20.9333V26.4133C16.5257 28.76 15.9391 29.3467 13.5658 29.3467H6.15234C3.77901 29.3467 3.19238 28.76 3.19238 26.4133V20.9333C3.19238 18.5867 3.77901 18 6.15234 18Z" stroke="#B6FB0D" stroke-width="2" stroke-linecap="round" stroke-linejoin="round" />
  <path d="M29.8587 20C29.8587 25.16 25.6854 29.3333 20.5254 29.3333L21.9254 27" stroke="white" stroke-width="2" stroke-linecap="round" stroke-linejoin="round" />
  <path d="M3.19238 12C3.19238 6.83996 7.36572 2.66663 12.5257 2.66663L11.1257 4.99996" stroke="white" stroke-width="1.5" stroke-linecap="round" stroke-linejoin="round" />
  <path d="M25.1924 14.6666C28.5061 14.6666 31.1924 11.9803 31.1924 8.66663C31.1924 5.35292 28.5061 2.66663 25.1924 2.66663C21.8787 2.66663 19.1924 5.35292 19.1924 8.66663C19.1924 11.9803 21.8787 14.6666 25.1924 14.6666Z" stroke="#B6FB0D" stroke-width="1.5" stroke-linecap="round" stroke-linejoin="round" />
</svg>