<svg width="48" height="49" viewBox="0 0 48 49" fill="none" xmlns="http://www.w3.org/2000/svg">
  <path d="M4 34.6201H24" stroke="#040404" stroke-width="1.5" stroke-miterlimit="10" stroke-linecap="round" stroke-linejoin="round" />
  <path d="M8.43994 27.5H19.5601C23.1201 27.5 24 28.38 24 31.9V40.12C24 43.64 23.1201 44.52 19.5601 44.52H8.43994C4.87994 44.52 4 43.64 4 40.12V31.9C4 28.38 4.87994 27.5 8.43994 27.5Z" stroke="#040404" stroke-width="1.5" stroke-linecap="round" stroke-linejoin="round" />
  <path d="M44 30.5C44 38.24 37.74 44.5 30 44.5L32.1 41" stroke="#262626" stroke-width="1.5" stroke-linecap="round" stroke-linejoin="round" />
  <path d="M4 18.5C4 10.76 10.26 4.5 18 4.5L15.9 8" stroke="#262626" stroke-width="1.5" stroke-linecap="round" stroke-linejoin="round" />
  <path d="M37 22.5C41.9706 22.5 46 18.4706 46 13.5C46 8.52944 41.9706 4.5 37 4.5C32.0294 4.5 28 8.52944 28 13.5C28 18.4706 32.0294 22.5 37 22.5Z" stroke="#040404" stroke-width="1.5" stroke-linecap="round" stroke-linejoin="round" />
</svg>