<svg width="32" height="32" viewBox="0 0 32 32" fill="none" xmlns="http://www.w3.org/2000/svg">
<path d="M30.6666 21.293C30.6666 26.453 26.4933 30.6263 21.3333 30.6263L22.7333 28.293" stroke="#B6FB0D" stroke-width="2" stroke-linecap="round" stroke-linejoin="round"/>
<path d="M1.33325 10.6263C1.33325 5.4663 5.50659 1.29297 10.6666 1.29297L9.26659 3.6263" stroke="#B6FB0D" stroke-width="2" stroke-linecap="round" stroke-linejoin="round"/>
<path d="M8.82617 17.4272H12.5728C13.3995 17.4272 14.0795 18.1739 14.0795 18.9339C14.0795 19.7606 13.4128 20.4406 12.5728 20.4406H8.82617V17.4272Z" stroke="#B6FB0D" stroke-width="2" stroke-miterlimit="10" stroke-linecap="round" stroke-linejoin="round"/>
<path d="M8.82617 20.4399H13.1195C14.0662 20.4399 14.8395 21.1066 14.8395 21.9466C14.8395 22.7733 14.0662 23.4533 13.1195 23.4533H8.82617V20.4399Z" stroke="#B6FB0D" stroke-width="2" stroke-miterlimit="10" stroke-linecap="round" stroke-linejoin="round"/>
<path d="M11.2258 23.4399V24.9333" stroke="#B6FB0D" stroke-width="2" stroke-miterlimit="10" stroke-linecap="round" stroke-linejoin="round"/>
<path d="M11.2258 15.9336V17.4269" stroke="#B6FB0D" stroke-width="2" stroke-miterlimit="10" stroke-linecap="round" stroke-linejoin="round"/>
<path d="M19.7998 20.4406C19.7998 24.9873 16.1198 28.6672 11.5731 28.6672C7.02644 28.6672 3.34644 24.9873 3.34644 20.4406C3.34644 15.8939 7.02644 12.2139 11.5731 12.2139C11.7864 12.2139 11.9864 12.2272 12.2131 12.2406C16.2531 12.5472 19.4798 15.7739 19.7864 19.8139C19.7864 20.0139 19.7998 20.2139 19.7998 20.4406Z" stroke="#787878" stroke-width="1.5" stroke-miterlimit="10" stroke-linecap="round" stroke-linejoin="round"/>
<path d="M28.6662 11.5601C28.6662 16.1068 24.9862 19.7869 20.4396 19.7869H19.7862C19.4796 15.7469 16.2529 12.5201 12.2129 12.2135V11.5601C12.2129 7.01347 15.8929 3.3335 20.4396 3.3335C24.9862 3.3335 28.6662 7.01347 28.6662 11.5601Z" stroke="#787878" stroke-width="1.5" stroke-miterlimit="10" stroke-linecap="round" stroke-linejoin="round"/>
</svg>
