<svg width="49" height="48" viewBox="0 0 49 48" fill="none" xmlns="http://www.w3.org/2000/svg">
  <path d="M6.47461 44H42.4746" stroke="white" stroke-width="2" stroke-linecap="round" stroke-linejoin="round" />
  <path d="M11.6746 16.7598H8.47461C7.37461 16.7598 6.47461 17.6598 6.47461 18.7598V35.9998C6.47461 37.0998 7.37461 37.9998 8.47461 37.9998H11.6746C12.7746 37.9998 13.6746 37.0998 13.6746 35.9998V18.7598C13.6746 17.6598 12.7746 16.7598 11.6746 16.7598Z" stroke="#B6FB0D" stroke-width="2" stroke-linecap="round" stroke-linejoin="round" />
  <path d="M26.075 10.3799H22.875C21.775 10.3799 20.875 11.2799 20.875 12.3799V35.9999C20.875 37.0999 21.775 37.9999 22.875 37.9999H26.075C27.175 37.9999 28.075 37.0999 28.075 35.9999V12.3799C28.075 11.2799 27.175 10.3799 26.075 10.3799Z" stroke="#B6FB0D" stroke-width="2" stroke-linecap="round" stroke-linejoin="round" />
  <path d="M40.4753 4H37.2754C36.1754 4 35.2754 4.9 35.2754 6V36C35.2754 37.1 36.1754 38 37.2754 38H40.4753C41.5753 38 42.4753 37.1 42.4753 36V6C42.4753 4.9 41.5753 4 40.4753 4Z" stroke="#B6FB0D" stroke-width="2" stroke-linecap="round" stroke-linejoin="round" />
</svg>