<svg width="36" height="36" viewBox="0 0 36 36" fill="none" xmlns="http://www.w3.org/2000/svg">
  <path d="M0 18C0 8.05888 8.05888 0 18 0C27.9411 0 36 8.05888 36 18C36 27.9411 27.9411 36 18 36C8.05888 36 0 27.9411 0 18Z" fill="#040404" />
  <path d="M8 28H28" stroke="white" stroke-width="1.5" stroke-miterlimit="10" stroke-linecap="round" stroke-linejoin="round" />
  <path d="M15.75 10V28H20.25V10C20.25 8.9 19.8 8 18.45 8H17.55C16.2 8 15.75 8.9 15.75 10Z" stroke="white" stroke-width="1.5" stroke-linecap="round" stroke-linejoin="round" />
  <path d="M9 16V28H13V16C13 14.9 12.6 14 11.4 14H10.6C9.4 14 9 14.9 9 16Z" stroke="white" stroke-width="1.5" stroke-linecap="round" stroke-linejoin="round" />
  <path d="M23 21V28H27V21C27 19.9 26.6 19 25.4 19H24.6C23.4 19 23 19.9 23 21Z" stroke="white" stroke-width="1.5" stroke-linecap="round" stroke-linejoin="round" />
</svg>