<svg width="36" height="36" viewBox="0 0 36 36" fill="none" xmlns="http://www.w3.org/2000/svg">
<path d="M13.9651 22.0498L16.2151 24.2998L22.2151 18.2998" stroke="#040404" stroke-width="2" stroke-linecap="round" stroke-linejoin="round"/>
<path d="M15 9H21C24 9 24 7.5 24 6C24 3 22.5 3 21 3H15C13.5 3 12 3 12 6C12 9 13.5 9 15 9Z" stroke="#040404" stroke-width="2" stroke-miterlimit="10" stroke-linecap="round" stroke-linejoin="round"/>
<path d="M24 6.02979C28.995 6.29979 31.5 8.14479 31.5 14.9998V23.9998C31.5 29.9998 30 32.9998 22.5 32.9998H13.5C6 32.9998 4.5 29.9998 4.5 23.9998V14.9998C4.5 8.15979 7.005 6.29979 12 6.02979" stroke="#040404" stroke-width="2" stroke-miterlimit="10" stroke-linecap="round" stroke-linejoin="round"/>
</svg>
