<svg width="36" height="47" viewBox="0 0 36 47" fill="none" xmlns="http://www.w3.org/2000/svg">
  <path d="M33.5299 24.5C35.0695 24.5 36.0321 26.1667 35.2623 27.5L24.611 45.9483C23.8412 47.2816 21.9169 47.2816 21.1471 45.9483L10.4947 27.5C9.72495 26.1667 10.6876 24.5001 12.2272 24.5L18.9879 24.5C18.7471 23.0777 18.3482 21.6829 17.7936 20.3438C16.8257 18.0072 15.4071 15.8841 13.6188 14.0957C11.8304 12.3074 9.70731 10.8888 7.37072 9.92094C5.65134 9.20875 3.84078 8.75086 1.9967 8.55864C0.898079 8.44414 -0.000369939 7.55871 -0.000369952 6.45414L-0.000370003 2.20024C-0.000370016 1.09584 0.896252 0.192593 1.99768 0.272504C4.92681 0.485797 7.80766 1.16779 10.5289 2.29496C13.8671 3.67769 16.9007 5.70389 19.4557 8.25883C22.0106 10.8138 24.0368 13.8474 25.4196 17.1856C26.3903 19.5292 27.0296 21.9909 27.3248 24.5L33.5299 24.5Z" fill="#B6FB0D" />
</svg>