<svg width="36" height="36" viewBox="0 0 36 36" fill="none" xmlns="http://www.w3.org/2000/svg">
  <path d="M27.75 18.9751V24.5251C27.75 29.2051 23.385 33.0001 18 33.0001C12.615 33.0001 8.25 29.2051 8.25 24.5251V18.9751C8.25 23.6551 12.615 27.0001 18 27.0001C23.385 27.0001 27.75 23.6551 27.75 18.9751Z" stroke="#040404" stroke-width="2" stroke-linecap="round" stroke-linejoin="round" />
  <path d="M27.75 11.475C27.75 12.84 27.375 14.1 26.715 15.18C25.11 17.82 21.81 19.5 18 19.5C14.19 19.5 10.89 17.82 9.285 15.18C8.625 14.1 8.25 12.84 8.25 11.475C8.25 9.135 9.34499 7.02 11.1 5.49C12.87 3.945 15.3 3 18 3C20.7 3 23.13 3.945 24.9 5.475C26.655 7.02 27.75 9.135 27.75 11.475Z" stroke="#040404" stroke-width="2" stroke-linecap="round" stroke-linejoin="round" />
  <path d="M27.75 11.475V18.975C27.75 23.655 23.385 27 18 27C12.615 27 8.25 23.655 8.25 18.975V11.475C8.25 6.795 12.615 3 18 3C20.7 3 23.13 3.945 24.9 5.475C26.655 7.02 27.75 9.135 27.75 11.475Z" stroke="#040404" stroke-width="2" stroke-linecap="round" stroke-linejoin="round" />
</svg>