<svg width="33" height="32" viewBox="0 0 33 32" fill="none" xmlns="http://www.w3.org/2000/svg">
  <path d="M29.8076 6.86675V11.8001C29.8076 14.8001 28.6076 16.0001 25.6076 16.0001H22.0076C19.0076 16.0001 17.8076 14.8001 17.8076 11.8001V6.86675C17.8076 3.86675 19.0076 2.66675 22.0076 2.66675H25.6076C28.6076 2.66675 29.8076 3.86675 29.8076 6.86675Z" stroke="#B6FB0D" stroke-width="1.5" stroke-linecap="round" stroke-linejoin="round" />
  <path d="M15.1416 20.2V25.1333C15.1416 28.1333 13.9416 29.3333 10.9416 29.3333H7.3416C4.3416 29.3333 3.1416 28.1333 3.1416 25.1333V20.2C3.1416 17.2 4.3416 16 7.3416 16H10.9416C13.9416 16 15.1416 17.2 15.1416 20.2Z" stroke="#B6FB0D" stroke-width="1.5" stroke-linecap="round" stroke-linejoin="round" />
  <path d="M29.8079 20C29.8079 25.16 25.6346 29.3333 20.4746 29.3333L21.8746 27" stroke="white" stroke-width="1.5" stroke-linecap="round" stroke-linejoin="round" />
  <path d="M3.1416 12.0001C3.1416 6.84008 7.31493 2.66675 12.4749 2.66675L11.0749 5.00008" stroke="white" stroke-width="1.5" stroke-linecap="round" stroke-linejoin="round" />
</svg>