<svg width="60" height="60" viewBox="0 0 60 60" fill="none" xmlns="http://www.w3.org/2000/svg">
<path d="M35.6543 38.5962H23.1543" stroke="white" stroke-width="1.5" stroke-miterlimit="10" stroke-linecap="round" stroke-linejoin="round"/>
<path d="M29.4043 32.4951V44.9951" stroke="white" stroke-width="1.5" stroke-miterlimit="10" stroke-linecap="round" stroke-linejoin="round"/>
<path d="M31.6499 6.29534L31.5749 6.47034L24.3249 23.2953H17.1999C15.4999 23.2953 13.8749 23.6453 12.3999 24.2703L16.7749 13.8203L16.8749 13.5703L17.0499 13.1703C17.0999 13.0203 17.1499 12.8703 17.2249 12.7453C20.4999 5.17034 24.1999 3.44534 31.6499 6.29534Z" stroke="#B6FB0D" stroke-width="1.5" stroke-linecap="round" stroke-linejoin="round"/>
<path d="M45.1252 23.7953C44.0002 23.4453 42.8002 23.2953 41.6002 23.2953H24.3252L31.5752 6.47029L31.6502 6.29529C32.0252 6.42029 32.3752 6.59529 32.7502 6.74529L38.2752 9.07029C41.3502 10.3453 43.5002 11.6703 44.8002 13.2703C45.0502 13.5703 45.2502 13.8453 45.4252 14.1703C45.6502 14.5203 45.8252 14.8703 45.9252 15.2453C46.0252 15.4703 46.1002 15.6953 46.1502 15.8953C46.8252 17.9953 46.4252 20.5703 45.1252 23.7953Z" stroke="#B6FB0D" stroke-width="1.5" stroke-linecap="round" stroke-linejoin="round"/>
<path d="M53.8043 35.4959V40.3709C53.8043 40.8709 53.7793 41.3709 53.7543 41.8709C53.2793 50.5959 48.4043 54.9959 39.1543 54.9959H19.6543C19.0543 54.9959 18.4543 54.9459 17.8793 54.8709C9.9293 54.3459 5.6793 50.0959 5.1543 42.1459C5.0793 41.5709 5.0293 40.9709 5.0293 40.3709V35.4959C5.0293 30.4709 8.0793 26.1459 12.4293 24.2709C13.9293 23.6459 15.5293 23.2959 17.2293 23.2959H41.6293C42.8543 23.2959 44.0543 23.4709 45.1543 23.7959C50.1293 25.3209 53.8043 29.9709 53.8043 35.4959Z" stroke="white" stroke-width="1.5" stroke-linecap="round" stroke-linejoin="round"/>
<path d="M16.775 13.8203L12.4 24.2703C8.05 26.1453 5 30.4703 5 35.4953V28.1703C5 21.0703 10.05 15.1453 16.775 13.8203Z" stroke="white" stroke-width="1.5" stroke-linecap="round" stroke-linejoin="round"/>
<path d="M53.7965 28.1691V35.4941C53.7965 29.9941 50.1465 25.3191 45.1465 23.8191C46.4465 20.5691 46.8215 18.0191 46.1965 15.8941C46.1465 15.6691 46.0715 15.4441 45.9715 15.2441C50.6215 17.6441 53.7965 22.5691 53.7965 28.1691Z" stroke="white" stroke-width="1.5" stroke-linecap="round" stroke-linejoin="round"/>
</svg>
