<svg width="68" height="68" viewBox="0 0 68 68" fill="none" xmlns="http://www.w3.org/2000/svg">
<path d="M56.6667 33.5664V39.3833C56.6667 48.3083 51.5667 52.1333 43.9167 52.1333H18.4167C10.7667 52.1333 5.66675 48.3083 5.66675 39.3833V24.0833C5.66675 15.1583 10.7667 11.3333 18.4167 11.3333H29.0667C28.6984 12.4099 28.5001 13.5999 28.5001 14.8749V25.925C28.5001 28.6733 29.4067 30.9966 31.0217 32.6116C32.6367 34.2266 34.9601 34.1333 37.7084 34.1333V39.0717C37.7084 40.5167 39.3518 37.3948 40.5701 36.6015L45.7584 34.1333H53.1251C54.4001 34.1333 55.5901 33.9348 56.6667 33.5664Z" stroke="white" stroke-width="2" stroke-miterlimit="10" stroke-linecap="round" stroke-linejoin="round"/>
<path d="M20.9663 62.3333H41.3663" stroke="white" stroke-width="1.5" stroke-miterlimit="10" stroke-linecap="round" stroke-linejoin="round"/>
<path d="M31.1667 52.1331V62.333" stroke="white" stroke-width="2" stroke-miterlimit="10" stroke-linecap="round" stroke-linejoin="round"/>
<path d="M63 15.8858V26.5488C63 30.6226 60.8954 33.6846 57.4615 34.8876C56.4092 35.243 55.2462 35.4346 54 35.4346H46.8L38.7969 40.7112C37.6062 41.4768 36 40.6294 36 39.2351V35.4346C33.3138 35.4346 31.0431 34.5597 29.4646 33.0012C27.8862 31.4428 27 29.2009 27 26.5488V15.8858C27 14.6555 27.1938 13.5071 27.5538 12.4682C28.7723 9.07791 31.8738 7 36 7H54C59.4 7 63 10.5543 63 15.8858Z" fill="#B6FB0D"/>
<path d="M53 21.4324H38M45.5 14.1111V29.1111" stroke="#1B1B1B" stroke-width="2" stroke-linecap="round" stroke-linejoin="round"/>
</svg>
