<svg width="48" height="48" viewBox="0 0 48 48" fill="none" xmlns="http://www.w3.org/2000/svg">
  <path d="M31.1598 23.9998C31.1598 27.9598 27.9598 31.1598 23.9998 31.1598C20.0398 31.1598 16.8398 27.9598 16.8398 23.9998C16.8398 20.0398 20.0398 16.8398 23.9998 16.8398C27.9598 16.8398 31.1598 20.0398 31.1598 23.9998Z" stroke="#B6FB0D" stroke-width="1.5" stroke-linecap="round" stroke-linejoin="round" />
  <path d="M23.9997 40.5399C31.0597 40.5399 37.6397 36.3799 42.2197 29.1799C44.0197 26.3599 44.0197 21.6199 42.2197 18.7999C37.6397 11.5999 31.0597 7.43994 23.9997 7.43994C16.9397 7.43994 10.3597 11.5999 5.77969 18.7999C3.97969 21.6199 3.97969 26.3599 5.77969 29.1799C10.3597 36.3799 16.9397 40.5399 23.9997 40.5399Z" stroke="white" stroke-width="1.5" stroke-linecap="round" stroke-linejoin="round" />
</svg>