<svg width="22" height="22" viewBox="0 0 22 22" fill="none" xmlns="http://www.w3.org/2000/svg">
<path d="M8.25008 17.4167C8.25008 18.1042 8.05758 18.755 7.71841 19.305C7.08591 20.3683 5.92175 21.0833 4.58341 21.0833C3.24508 21.0833 2.08092 20.3683 1.44842 19.305C1.10925 18.755 0.916748 18.1042 0.916748 17.4167C0.916748 15.3908 2.55758 13.75 4.58341 13.75C6.60925 13.75 8.25008 15.3908 8.25008 17.4167Z" stroke="white" stroke-linecap="round" stroke-linejoin="round"/>
<path d="M3.15332 17.4169L4.06082 18.3244L6.01332 16.5186" stroke="white" stroke-linecap="round" stroke-linejoin="round"/>
<path d="M16.2707 6.46263C16.0507 6.42597 15.8216 6.41681 15.5832 6.41681H6.41657C6.15991 6.41681 5.91241 6.43514 5.67407 6.47181C5.80241 6.21514 5.98574 5.97684 6.20574 5.75684L9.18491 2.7685C10.4407 1.52183 12.4757 1.52183 13.7316 2.7685L15.3357 4.39096C15.9224 4.96846 16.2341 5.7018 16.2707 6.46263Z" stroke="white" stroke-linecap="round" stroke-linejoin="round"/>
<path d="M20.1666 10.9998V15.5832C20.1666 18.3332 18.3333 20.1665 15.5833 20.1665H6.99409C7.27825 19.9282 7.52575 19.6348 7.71825 19.3048C8.05742 18.7548 8.24992 18.104 8.24992 17.4165C8.24992 15.3907 6.60909 13.7498 4.58325 13.7498C3.48325 13.7498 2.50242 14.2357 1.83325 14.9965V10.9998C1.83325 8.5065 3.33658 6.76484 5.67408 6.4715C5.91242 6.43484 6.15992 6.4165 6.41659 6.4165H15.5833C15.8216 6.4165 16.0508 6.42566 16.2708 6.46233C18.6358 6.73733 20.1666 8.48817 20.1666 10.9998Z" stroke="white" stroke-linecap="round" stroke-linejoin="round"/>
<path d="M20.1666 11.4585H17.4166C16.4083 11.4585 15.5833 12.2835 15.5833 13.2918C15.5833 14.3002 16.4083 15.1252 17.4166 15.1252H20.1666" stroke="white" stroke-linecap="round" stroke-linejoin="round"/>
</svg>
