<svg width="48" height="49" viewBox="0 0 48 49" fill="none" xmlns="http://www.w3.org/2000/svg">
  <path d="M29 34.4118C29 37.5528 26.5195 40 23.5 40C20.4806 40 18 37.6728 18 34.5318C18 33.7607 18.0865 32.7119 18.5601 31.9244C19.0336 31.1369 19.2935 30.9365 19.8598 30.2876C20.4261 29.6386 20.5113 29.6068 20.9647 28.7348C21.4181 27.8627 21.7346 26.1512 21.7346 25C22.4599 25.606 25.909 26.25 27.5998 29.2855C28.0417 30.0789 28.1259 30.2447 28.5438 31.5293C28.9617 32.8141 29 33.6407 29 34.4118Z" stroke="#B6FB0D" stroke-width="1.5" stroke-linejoin="round" />
  <path d="M24 44.5C32.2348 44.5 38.9998 37.9742 38.9998 29.5982C38.9998 27.5418 38.8954 25.3376 37.7556 21.9116C36.6158 18.4858 36.3862 18.0436 35.181 15.9279C34.666 20.2454 31.911 22.0448 31.211 22.5826C31.211 22.023 29.5444 15.8359 27.0176 12.1339C24.537 8.5 21.1634 6.11592 19.1853 4.5C19.1853 7.56978 18.3219 12.1339 17.0854 14.4594C15.8489 16.7849 15.6167 16.8696 14.0722 18.6002C12.5278 20.3308 11.8189 20.8652 10.5274 22.965C9.23596 25.065 9 27.8618 9 29.9182C9 38.2942 15.7653 44.5 24 44.5Z" stroke="white" stroke-width="1.5" stroke-linejoin="round" />
</svg>