<svg width="33" height="32" viewBox="0 0 33 32" fill="none" xmlns="http://www.w3.org/2000/svg">
  <path d="M25.1917 16.8667V21.8C25.1917 25.96 21.3117 29.3334 16.5251 29.3334C11.7384 29.3334 7.8584 25.96 7.8584 21.8V16.8667C7.8584 21.0267 11.7384 24 16.5251 24C21.3117 24 25.1917 21.0267 25.1917 16.8667Z" stroke="white" stroke-width="1.5" stroke-linecap="round" stroke-linejoin="round" />
  <path d="M25.1917 10.1998C25.1917 11.4132 24.8584 12.5332 24.2717 13.4932C22.8451 15.8398 19.9117 17.3332 16.5251 17.3332C13.1384 17.3332 10.2051 15.8398 8.7784 13.4932C8.19174 12.5332 7.8584 11.4132 7.8584 10.1998C7.8584 8.11984 8.83172 6.23984 10.3917 4.87984C11.9651 3.5065 14.1251 2.6665 16.5251 2.6665C18.9251 2.6665 21.0851 3.50651 22.6584 4.86651C24.2184 6.23984 25.1917 8.11984 25.1917 10.1998Z" stroke="#B6FB0D" stroke-width="1.5" stroke-linecap="round" stroke-linejoin="round" />
  <path d="M25.1917 10.1998V16.8665C25.1917 21.0265 21.3117 23.9998 16.5251 23.9998C11.7384 23.9998 7.8584 21.0265 7.8584 16.8665V10.1998C7.8584 6.03984 11.7384 2.6665 16.5251 2.6665C18.9251 2.6665 21.0851 3.50651 22.6584 4.86651C24.2184 6.23984 25.1917 8.11984 25.1917 10.1998Z" stroke="#B6FB0D" stroke-width="1.5" stroke-linecap="round" stroke-linejoin="round" />
</svg>