<svg width="32" height="32" viewBox="0 0 32 32" fill="none" xmlns="http://www.w3.org/2000/svg">
<path d="M24.6666 16.8667V21.8C24.6666 25.96 20.7866 29.3334 15.9999 29.3334C11.2133 29.3334 7.33325 25.96 7.33325 21.8V16.8667C7.33325 21.0267 11.2133 24 15.9999 24C20.7866 24 24.6666 21.0267 24.6666 16.8667Z" stroke="#787878" stroke-width="2" stroke-linecap="round" stroke-linejoin="round"/>
<path d="M24.6666 10.1998C24.6666 11.4132 24.3332 12.5332 23.7466 13.4932C22.3199 15.8398 19.3866 17.3332 15.9999 17.3332C12.6133 17.3332 9.67992 15.8398 8.25326 13.4932C7.66659 12.5332 7.33325 11.4132 7.33325 10.1998C7.33325 8.11984 8.30658 6.23984 9.86658 4.87984C11.4399 3.5065 13.5999 2.6665 15.9999 2.6665C18.3999 2.6665 20.5599 3.50651 22.1333 4.86651C23.6933 6.23984 24.6666 8.11984 24.6666 10.1998Z" stroke="#B6FB0D" stroke-width="2" stroke-linecap="round" stroke-linejoin="round"/>
<path d="M24.6666 10.1998V16.8665C24.6666 21.0265 20.7866 23.9998 15.9999 23.9998C11.2133 23.9998 7.33325 21.0265 7.33325 16.8665V10.1998C7.33325 6.03984 11.2133 2.6665 15.9999 2.6665C18.3999 2.6665 20.5599 3.50651 22.1333 4.86651C23.6933 6.23984 24.6666 8.11984 24.6666 10.1998Z" stroke="#B6FB0D" stroke-width="2" stroke-linecap="round" stroke-linejoin="round"/>
</svg>
