
<svg width="202" height="152" viewBox="0 0 202 152" fill="none" xmlns="http://www.w3.org/2000/svg">
<path d="M102 1.5C113.683 1.5 124.526 9.50699 132.529 23.0244C140.513 36.5088 145.5 55.235 145.5 76C145.5 96.765 140.513 115.491 132.529 128.976C124.526 142.493 113.683 150.5 102 150.5C90.3174 150.5 79.4744 142.493 71.4707 128.976C63.4866 115.491 58.5 96.765 58.5 76C58.5 55.235 63.4866 36.5088 71.4707 23.0244C79.4744 9.50699 90.3174 1.5 102 1.5Z" stroke="#040404" stroke-width="3"/>
<circle cx="102" cy="76" r="74.5" stroke="#040404" stroke-width="3"/>
<path d="M176.5 76C176.5 87.6826 168.493 98.5256 154.976 106.529C141.491 114.513 122.765 119.5 102 119.5C81.235 119.5 62.5088 114.513 49.0244 106.529C35.507 98.5255 27.5 87.6826 27.5 76C27.5 64.3174 35.507 53.4744 49.0244 45.4707C62.5088 37.4866 81.235 32.5 102 32.5C122.765 32.5 141.491 37.4866 154.976 45.4707C168.493 53.4744 176.5 64.3174 176.5 76Z" stroke="#040404" stroke-width="3"/>
<line x1="101.5" y1="0.0012207" x2="101.5" y2="152.001" stroke="#040404" stroke-width="3"/>
<path d="M174.228 49.4104C191.089 35.5415 197.692 26.9332 195.023 22.4675C189.977 14.0238 144.342 32.0049 93.0944 62.6294C41.8465 93.254 4.39224 124.925 9.438 133.369C12.2263 138.035 21.6846 136.321 43.3599 127.174" stroke="#040404" stroke-width="7" stroke-linecap="round"/>
<rect x="48" y="54.0012" width="46" height="42.7143" rx="10" fill="black"/>
<path d="M81.1801 73.6304C82.5031 74.4021 82.5031 76.3137 81.1801 77.0855L67.4351 85.1034C66.1017 85.8812 64.4273 84.9194 64.4273 83.3758L64.4273 67.34C64.4273 65.7964 66.1017 64.8347 67.4351 65.6124L81.1801 73.6304Z" fill="#B6FB0D"/>
</svg>
