<svg width="304" height="303" viewBox="0 0 304 303" fill="none" xmlns="http://www.w3.org/2000/svg">
<path d="M133.367 14.193L131.527 14.3884L130.159 1.51085L131.999 1.31544L133.367 14.193ZM139.394 0.529885L141.234 0.334473L142.602 13.212L140.762 13.4074L139.394 0.529885ZM132.443 7.07274L140.188 6.25005L140.358 7.85055L132.613 8.67323L132.443 7.07274Z" fill="#B6FB0D"/>
<path d="M127.571 1.84351L127.808 3.07894L123.589 9.06947C123.213 9.59389 122.947 10.0405 122.792 10.4094C122.627 10.7928 122.535 11.1307 122.515 11.4232C122.486 11.7302 122.498 12.0169 122.549 12.2834C122.674 12.9374 123.003 13.408 123.536 13.6951C124.068 13.9822 124.776 14.0408 125.66 13.871C126.339 13.7408 126.928 13.5083 127.429 13.1735C127.932 12.8508 128.338 12.4149 128.647 11.8658L130.089 12.7004C129.723 13.4112 129.166 14.008 128.417 14.4909C127.658 14.9881 126.789 15.331 125.807 15.5194C124.923 15.6892 124.126 15.6915 123.416 15.5264C122.709 15.3735 122.128 15.0642 121.675 14.5988C121.209 14.1356 120.906 13.5407 120.767 12.8139C120.688 12.4021 120.664 11.9859 120.697 11.5653C120.729 11.1446 120.853 10.6812 121.07 10.1749C121.287 9.6686 121.626 9.08222 122.089 8.41575L125.849 3.07842L126.421 3.70324L118.736 5.17901L118.432 3.59839L127.571 1.84351Z" fill="#B6FB0D"/>
<path d="M116.255 11.7758L109.831 13.5313L109.417 12.0144L115.841 10.2589L116.255 11.7758ZM114.578 6.26963L107.297 8.25924L106.873 6.70666L115.939 4.2294L119.352 16.7214L110.536 19.1304L110.112 17.5778L117.143 15.6565L114.578 6.26963Z" fill="#B6FB0D"/>
<path d="M102.892 12.6694L103.376 13.8105L86.3448 21.0342L85.8608 19.8931L102.892 12.6694Z" fill="white"/>
<path d="M76.8176 34.9578L75.235 35.9158L68.5286 24.8376L70.1113 23.8795L76.8176 34.9578ZM76.4733 20.0282L78.0559 19.0701L84.7623 30.1483L83.1797 31.1064L76.4733 20.0282ZM72.958 28.9035L79.6207 24.8701L80.4542 26.2469L73.7915 30.2803L72.958 28.9035Z" fill="white"/>
<path d="M62.7922 28.8339L65.7246 32.8318L64.7031 32.1585L74.5985 36.2343L73.0023 37.4051L64.6655 33.9527L65.5307 33.3181L66.3044 42.3179L64.8276 43.4011L63.8976 32.7494L64.2478 33.915L61.3154 29.9171L62.7922 28.8339Z" fill="white"/>
<path d="M55.9299 34.0618L64.4071 43.8516L60.5891 47.1577C59.7313 47.9004 58.8823 48.399 58.0422 48.6534C57.202 48.9078 56.3967 48.9199 55.6264 48.6896C54.856 48.4594 54.164 47.99 53.5504 47.2814C52.9369 46.5728 52.5712 45.8208 52.4535 45.0255C52.3438 44.2394 52.4709 43.4441 52.8348 42.6397C53.2067 41.8445 53.8215 41.0755 54.6793 40.3328L57.7281 37.6927L57.668 38.895L54.5314 35.2728L55.9299 34.0618ZM57.5469 38.7552L58.7817 38.9095L55.7748 41.5132C54.8798 42.2882 54.3693 43.0647 54.2435 43.8426C54.1083 44.6285 54.3435 45.3711 54.949 46.0704C55.5545 46.7696 56.2558 47.1086 57.053 47.0872C57.8409 47.0738 58.6824 46.6797 59.5774 45.9046L62.5843 43.3009L62.5605 44.5451L57.5469 38.7552Z" fill="white"/>
<path d="M50.1855 49.1453L45.536 53.9136L44.4101 52.8158L49.0597 48.0475L50.1855 49.1453ZM45.9499 45.2478L40.6805 50.652L39.5281 49.5283L46.0891 42.7996L55.361 51.8404L48.9808 58.3836L47.8284 57.26L52.9171 52.0413L45.9499 45.2478Z" fill="white"/>
<path d="M32.7499 57.5801L41.6751 64.5763L44.4142 61.0819L45.681 62.0748L39.0728 70.5051L37.8061 69.5121L40.5452 66.0177L31.62 59.0215L32.7499 57.5801Z" fill="white"/>
<path d="M24.5642 68.8671C25.104 68.0412 25.7461 67.3632 26.4904 66.833C27.228 66.3132 28.0133 65.9571 28.8462 65.7648C29.6894 65.5793 30.541 65.5613 31.401 65.7108C32.261 65.8604 33.0885 66.1949 33.8834 66.7145C34.6783 67.2341 35.3168 67.8577 35.7989 68.5854C36.281 69.313 36.6012 70.0969 36.7593 70.937C36.9278 71.7838 36.922 72.6493 36.7419 73.5335C36.5618 74.4177 36.1985 75.2779 35.6519 76.1141C35.1121 76.94 34.4767 77.6077 33.7459 78.1172C33.0187 78.6438 32.2334 78.9999 31.3901 79.1854C30.5505 79.388 29.704 79.4094 28.8508 79.2496C27.9908 79.1 27.1582 78.7621 26.3529 78.2358C25.5477 77.7095 24.904 77.0825 24.4219 76.3548C23.9331 75.6375 23.6078 74.8502 23.446 73.9931C23.2879 73.153 23.2988 72.2908 23.479 71.4066C23.6626 70.5395 24.0244 69.693 24.5642 68.8671ZM25.9424 69.7679C25.551 70.3667 25.2933 70.9865 25.1691 71.6273C25.0382 72.2785 25.0371 72.9113 25.1659 73.5259C25.2982 74.1575 25.5498 74.7419 25.9207 75.279C26.2849 75.8265 26.7663 76.2959 27.3651 76.6872C27.9639 77.0786 28.587 77.3312 29.2346 77.445C29.8754 77.5692 30.5065 77.5617 31.1278 77.4227C31.7527 77.3007 32.3371 77.0491 32.881 76.6678C33.4181 76.2969 33.8823 75.8121 34.2737 75.2133C34.6718 74.6042 34.9363 73.9741 35.0672 73.323C35.1914 72.6821 35.1873 72.0459 35.055 71.4143C34.933 70.7894 34.6899 70.2032 34.3258 69.6558C33.9548 69.1187 33.47 68.6544 32.8712 68.263C32.2725 67.8717 31.6527 67.6139 31.0118 67.4898C30.3643 67.3759 29.7247 67.3851 29.093 67.5175C28.4717 67.6565 27.8925 67.9115 27.3554 68.2824C26.8115 68.6637 26.3405 69.1588 25.9424 69.7679Z" fill="white"/>
<path d="M23.0574 86.2447L20.1425 92.2329L18.7286 91.5447L21.6435 85.5565L23.0574 86.2447ZM17.8114 83.8763L14.5078 90.6629L13.0607 89.9585L17.1739 81.5084L28.8177 87.1763L24.8178 95.3935L23.3707 94.689L26.5608 88.1352L17.8114 83.8763Z" fill="white"/>
<path d="M12.6081 90.8846L22.5881 101.009L21.9304 102.718L7.73154 103.558L8.42915 101.745L21.4286 101.137L21.1628 101.828L11.9238 92.663L12.6081 90.8846ZM14.7327 94.3781L15.9346 95.3758L13.3169 102.179L11.743 102.148L14.7327 94.3781Z" fill="white"/>
<path d="M7.20571 105.411L19.6615 108.955L18.2795 113.813C17.969 114.904 17.5321 115.786 16.9687 116.459C16.4054 117.133 15.7384 117.584 14.9678 117.814C14.1973 118.043 13.3612 118.03 12.4596 117.773C11.5581 117.517 10.8401 117.088 10.3058 116.487C9.78334 115.89 9.45978 115.157 9.33512 114.288C9.21047 113.419 9.30338 112.439 9.61386 111.347L10.7174 107.468L11.3081 108.502L6.69949 107.191L7.20571 105.411ZM4.83663 113.739L10.2574 111.857L9.7157 113.761L4.28485 115.678L4.83663 113.739ZM11.1302 108.451L12.2299 107.898L11.1415 111.724C10.8176 112.863 10.8161 113.792 11.1371 114.512C11.4666 115.247 12.0762 115.741 12.9659 115.994C13.8556 116.247 14.628 116.146 15.2831 115.691C15.9348 115.248 16.4226 114.458 16.7466 113.319L17.835 109.493L18.4969 110.547L11.1302 108.451Z" fill="white"/>
<path d="M3.70847 118.377L16.4439 120.724L16.169 122.216L4.15501 128.712L4.29921 127.929L14.7605 129.858L14.4251 131.677L1.68967 129.33L1.96466 127.838L13.9786 121.342L13.8344 122.125L3.37312 120.196L3.70847 118.377Z" fill="white"/>
<path d="M5.215 136.332L6.45357 136.38L5.73481 154.866L4.49624 154.818L5.215 136.332Z" fill="white"/>
<path d="M14.2596 169.439L14.4495 171.279L1.56786 172.608L1.37798 170.768L14.2596 169.439ZM0.614681 163.37L0.424805 161.53L13.3064 160.201L13.4963 162.041L0.614681 163.37ZM7.13659 170.341L6.33721 162.594L7.93821 162.429L8.73759 170.176L7.13659 170.341Z" fill="#B6FB0D"/>
<path d="M1.89398 175.198L3.12969 174.962L9.11513 179.188C9.63909 179.565 10.0854 179.832 10.4541 179.987C10.8373 180.153 11.1751 180.245 11.4676 180.265C11.7745 180.294 12.0612 180.283 12.3278 180.233C12.982 180.108 13.4529 179.779 13.7407 179.247C14.0284 178.715 14.0879 178.007 13.9192 177.123C13.7898 176.444 13.5579 175.854 13.2238 175.353C12.9017 174.85 12.4663 174.443 11.9175 174.133L12.7539 172.693C13.4642 173.06 14.0604 173.618 14.5423 174.367C15.0387 175.126 15.3805 175.996 15.5677 176.978C15.7364 177.862 15.7378 178.659 15.5719 179.369C15.418 180.076 15.1081 180.656 14.6421 181.109C14.1784 181.575 13.5831 181.876 12.8562 182.015C12.4443 182.094 12.028 182.117 11.6074 182.084C11.1868 182.051 10.7235 181.926 10.2175 181.709C9.71148 181.491 9.12551 181.151 8.4596 180.688L3.1268 176.922L3.75232 176.35L5.21881 184.037L3.63783 184.339L1.89398 175.198Z" fill="#B6FB0D"/>
<path d="M11.811 186.533L13.5525 192.961L12.0347 193.372L10.2932 186.944L11.811 186.533ZM6.30123 188.198L8.2749 195.484L6.7214 195.904L4.26398 186.833L16.7634 183.447L19.1531 192.268L17.5996 192.689L15.6937 185.654L6.30123 188.198Z" fill="#B6FB0D"/>
<path d="M12.6814 199.888L13.8228 199.405L21.0386 216.439L19.8972 216.923L12.6814 199.888Z" fill="white"/>
<path d="M34.9646 225.96L35.9229 227.542L24.8457 234.25L23.8874 232.668L34.9646 225.96ZM20.035 226.306L19.0767 224.724L30.1539 218.016L31.1122 219.598L20.035 226.306ZM28.9109 229.82L24.8764 223.158L26.2532 222.324L30.2876 228.987L28.9109 229.82Z" fill="white"/>
<path d="M28.8441 239.985L32.8406 237.051L32.1678 238.072L36.2389 228.175L37.4104 229.771L33.9621 238.109L33.327 237.244L42.3264 236.466L43.4103 237.943L32.7591 238.878L33.9245 238.527L29.928 241.461L28.8441 239.985Z" fill="white"/>
<path d="M34.0764 246.844L43.8552 238.354L47.1662 242.167C47.9101 243.024 48.4098 243.872 48.6653 244.712C48.9208 245.552 48.9339 246.357 48.7047 247.128C48.4755 247.899 48.007 248.591 47.2992 249.206C46.5914 249.82 45.8399 250.187 45.0447 250.306C44.2588 250.416 43.4633 250.29 42.6584 249.928C41.8627 249.557 41.093 248.943 40.3491 248.086L37.7051 245.041L38.9074 245.099L35.2893 248.241L34.0764 246.844ZM38.7677 245.221L38.9204 243.986L41.528 246.989C42.3043 247.883 43.0814 248.392 43.8594 248.517C44.6455 248.651 45.3879 248.415 46.0863 247.809C46.7848 247.202 47.1228 246.501 47.1004 245.703C47.086 244.916 46.6907 244.075 45.9145 243.181L43.3069 240.177L44.5511 240.199L38.7677 245.221Z" fill="white"/>
<path d="M49.1695 252.574L53.9404 257.221L52.8432 258.348L48.0723 253.701L49.1695 252.574ZM45.2743 256.812L50.6814 262.078L49.5584 263.231L42.8261 256.674L51.8617 247.397L58.4085 253.774L57.2855 254.927L52.064 249.841L45.2743 256.812Z" fill="white"/>
<path d="M57.6177 270.001L64.6072 261.07L61.1107 258.334L62.1027 257.066L70.5379 263.668L69.5459 264.936L66.0495 262.199L59.06 271.13L57.6177 270.001Z" fill="white"/>
<path d="M68.9106 278.178C68.0843 277.639 67.4058 276.998 66.8752 276.254C66.3549 275.516 65.9983 274.731 65.8054 273.899C65.6193 273.055 65.6007 272.204 65.7496 271.344C65.8986 270.484 66.2326 269.656 66.7516 268.861C67.2707 268.065 67.8938 267.426 68.6212 266.944C69.3485 266.461 70.1322 266.141 70.9721 265.982C71.8189 265.813 72.6844 265.818 73.5687 265.998C74.453 266.177 75.3135 266.54 76.1501 267.086C76.9763 267.625 77.6445 268.26 78.1545 268.99C78.6815 269.717 79.0381 270.502 79.2243 271.345C79.4274 272.185 79.4494 273.031 79.2901 273.885C79.1412 274.745 78.8038 275.578 78.278 276.383C77.7523 277.189 77.1257 277.833 76.3983 278.316C75.6813 278.805 74.8943 279.131 74.0373 279.293C73.1973 279.452 72.3352 279.441 71.4508 279.262C70.5836 279.079 69.7368 278.718 68.9106 278.178ZM69.8104 276.8C70.4095 277.191 71.0295 277.448 71.6704 277.572C72.3216 277.702 72.9544 277.703 73.5689 277.574C74.2005 277.441 74.7847 277.189 75.3215 276.818C75.8687 276.453 76.3378 275.971 76.7288 275.372C77.1197 274.773 77.3719 274.15 77.4853 273.502C77.609 272.861 77.6012 272.23 77.4617 271.609C77.3393 270.984 77.0873 270.4 76.7057 269.856C76.3344 269.319 75.8492 268.856 75.2502 268.465C74.6408 268.067 74.0105 267.803 73.3593 267.672C72.7184 267.549 72.0822 267.553 71.4506 267.686C70.8258 267.808 70.2398 268.052 69.6926 268.416C69.1557 268.788 68.6918 269.273 68.3009 269.872C67.9099 270.471 67.6526 271.091 67.5288 271.732C67.4154 272.379 67.4251 273.019 67.5578 273.65C67.6973 274.272 67.9527 274.851 68.324 275.388C68.7056 275.931 69.2011 276.402 69.8104 276.8Z" fill="white"/>
<path d="M86.2875 279.684L92.2763 282.598L91.5883 284.012L85.5995 281.098L86.2875 279.684ZM83.92 284.93L90.7072 288.233L90.003 289.68L81.5523 285.568L87.2181 273.924L95.436 277.922L94.7318 279.369L88.1775 276.18L83.92 284.93Z" fill="white"/>
<path d="M90.9293 290.133L101.063 280.163L102.772 280.822L103.598 295.022L101.785 294.322L101.191 281.322L101.881 281.589L92.707 290.819L90.9293 290.133ZM94.425 288.011L95.4239 286.811L102.224 289.435L102.192 291.009L94.425 288.011Z" fill="white"/>
<path d="M105.451 295.549L109.006 283.097L113.862 284.483C114.953 284.795 115.835 285.232 116.508 285.796C117.181 286.36 117.631 287.028 117.86 287.798C118.089 288.569 118.075 289.405 117.818 290.306C117.56 291.208 117.131 291.925 116.53 292.459C115.932 292.981 115.198 293.304 114.329 293.428C113.46 293.552 112.48 293.458 111.389 293.146L107.511 292.039L108.545 291.45L107.23 296.057L105.451 295.549ZM113.776 297.926L111.9 292.503L113.803 293.047L115.715 298.479L113.776 297.926ZM108.494 291.628L107.943 290.527L111.767 291.619C112.906 291.944 113.835 291.947 114.555 291.626C115.29 291.297 115.785 290.688 116.039 289.799C116.293 288.909 116.192 288.137 115.738 287.481C115.296 286.829 114.506 286.341 113.367 286.016L109.542 284.924L110.597 284.263L108.494 291.628Z" fill="white"/>
<path d="M118.413 299.061L120.789 286.331L122.281 286.609L128.749 298.638L127.967 298.492L129.919 288.035L131.737 288.374L129.361 301.104L127.87 300.826L121.402 288.797L122.184 288.943L120.232 299.4L118.413 299.061Z" fill="white"/>
<path d="M136.375 297.601L136.428 296.362L154.911 297.143L154.859 298.381L136.375 297.601Z" fill="white"/>
<path d="M169.531 288.693L171.372 288.511L172.642 301.399L170.801 301.58L169.531 288.693ZM163.399 302.309L161.558 302.491L160.289 289.603L162.13 289.422L163.399 302.309ZM170.401 295.82L162.65 296.583L162.492 294.981L170.243 294.218L170.401 295.82Z" fill="#B6FB0D"/>
<path d="M175.233 301.086L175.005 299.849L179.267 293.889C179.647 293.367 179.916 292.923 180.074 292.555C180.242 292.173 180.337 291.835 180.358 291.543C180.389 291.236 180.38 290.95 180.331 290.683C180.21 290.028 179.884 289.555 179.354 289.264C178.824 288.973 178.116 288.909 177.231 289.073C176.551 289.198 175.96 289.426 175.457 289.757C174.951 290.076 174.542 290.509 174.229 291.056L172.794 290.211C173.165 289.503 173.727 288.91 174.479 288.433C175.241 287.941 176.113 287.604 177.095 287.423C177.981 287.26 178.778 287.263 179.487 287.433C180.193 287.592 180.771 287.905 181.221 288.374C181.684 288.84 181.982 289.437 182.116 290.165C182.193 290.577 182.213 290.994 182.178 291.414C182.142 291.835 182.014 292.297 181.794 292.802C181.574 293.307 181.23 293.89 180.763 294.554L176.964 299.864L176.397 299.235L184.092 297.814L184.384 299.397L175.233 301.086Z" fill="#B6FB0D"/>
<path d="M186.628 291.237L193.066 289.534L193.468 291.055L187.03 292.758L186.628 291.237ZM188.26 296.757L195.557 294.827L195.968 296.383L186.883 298.786L183.572 286.267L192.407 283.93L192.818 285.486L185.772 287.35L188.26 296.757Z" fill="#B6FB0D"/>
<path d="M199.998 290.454L199.523 289.309L216.613 282.225L217.088 283.37L199.998 290.454Z" fill="white"/>
<path d="M226.242 268.369L227.832 267.423L234.453 278.553L232.863 279.498L226.242 268.369ZM226.471 283.3L224.881 284.246L218.261 273.116L219.851 272.171L226.471 283.3ZM230.055 274.453L223.361 278.434L222.538 277.051L229.232 273.069L230.055 274.453Z" fill="white"/>
<path d="M240.222 274.605L237.325 270.582L238.341 271.264L228.481 267.102L230.088 265.945L238.394 269.47L237.523 270.097L236.828 261.091L238.315 260.021L239.151 270.68L238.811 269.512L241.709 273.535L240.222 274.605Z" fill="white"/>
<path d="M247.128 269.436L238.724 259.584L242.566 256.306C243.43 255.57 244.282 255.077 245.124 254.829C245.966 254.581 246.772 254.575 247.54 254.811C248.309 255.047 248.997 255.521 249.606 256.234C250.214 256.948 250.574 257.702 250.686 258.498C250.79 259.285 250.657 260.08 250.287 260.881C249.909 261.674 249.289 262.438 248.425 263.174L245.357 265.792L245.426 264.59L248.536 268.235L247.128 269.436ZM245.546 264.731L244.312 264.567L247.339 261.986C248.239 261.218 248.756 260.445 248.887 259.668C249.028 258.883 248.798 258.139 248.198 257.435C247.598 256.731 246.899 256.387 246.102 256.403C245.314 256.41 244.469 256.798 243.569 257.567L240.543 260.148L240.576 258.904L245.546 264.731Z" fill="white"/>
<path d="M252.997 254.391L257.69 249.665L258.806 250.773L254.113 255.499L252.997 254.391ZM257.197 258.327L262.515 252.971L263.658 254.105L257.036 260.774L247.846 251.649L254.286 245.164L255.428 246.298L250.292 251.471L257.197 258.327Z" fill="white"/>
<path d="M270.494 246.102L261.625 239.035L258.858 242.507L257.6 241.504L264.275 233.127L265.534 234.13L262.767 237.603L271.636 244.67L270.494 246.102Z" fill="white"/>
<path d="M278.77 234.881C278.224 235.703 277.576 236.376 276.828 236.9C276.086 237.414 275.298 237.764 274.463 237.949C273.619 238.128 272.767 238.139 271.908 237.983C271.049 237.827 270.225 237.485 269.434 236.96C268.643 236.434 268.01 235.805 267.533 235.073C267.057 234.342 266.743 233.556 266.592 232.714C266.43 231.866 266.443 231.001 266.63 230.118C266.817 229.235 267.187 228.378 267.74 227.546C268.287 226.725 268.927 226.062 269.662 225.558C270.394 225.037 271.182 224.688 272.026 224.509C272.868 224.313 273.714 224.298 274.566 224.465C275.425 224.621 276.255 224.966 277.056 225.499C277.857 226.031 278.496 226.663 278.972 227.395C279.455 228.116 279.774 228.906 279.929 229.764C280.08 230.606 280.062 231.468 279.875 232.35C279.685 233.216 279.316 234.06 278.77 234.881ZM277.399 233.969C277.795 233.374 278.058 232.756 278.187 232.116C278.323 231.466 278.329 230.833 278.205 230.218C278.078 229.585 277.831 228.999 277.465 228.459C277.105 227.908 276.627 227.435 276.031 227.039C275.436 226.643 274.815 226.385 274.168 226.266C273.528 226.137 272.897 226.14 272.275 226.274C271.649 226.391 271.062 226.638 270.516 227.014C269.976 227.381 269.507 227.862 269.111 228.458C268.708 229.064 268.439 229.692 268.303 230.342C268.173 230.982 268.172 231.618 268.3 232.251C268.417 232.876 268.655 233.465 269.015 234.015C269.382 234.555 269.863 235.023 270.458 235.419C271.054 235.815 271.672 236.078 272.311 236.207C272.958 236.326 273.598 236.322 274.23 236.195C274.853 236.061 275.434 235.81 275.974 235.444C276.521 235.067 276.996 234.575 277.399 233.969Z" fill="white"/>
<path d="M280.417 217.515L283.381 211.551L284.789 212.251L281.825 218.214L280.417 217.515ZM285.643 219.926L289.002 213.167L290.444 213.884L286.261 222.299L274.664 216.535L278.732 208.352L280.173 209.068L276.929 215.595L285.643 219.926Z" fill="white"/>
<path d="M290.904 212.961L281.002 202.761L281.673 201.056L295.878 200.326L295.166 202.133L282.163 202.641L282.434 201.952L291.602 211.188L290.904 212.961ZM288.806 209.451L287.612 208.444L290.282 201.662L291.856 201.705L288.806 209.451Z" fill="white"/>
<path d="M296.419 198.477L283.993 194.83L285.416 189.984C285.735 188.895 286.18 188.016 286.748 187.348C287.317 186.679 287.988 186.233 288.761 186.01C289.533 185.787 290.369 185.808 291.268 186.072C292.168 186.335 292.882 186.77 293.411 187.375C293.929 187.977 294.246 188.713 294.364 189.583C294.481 190.453 294.38 191.432 294.06 192.521L292.925 196.391L292.343 195.352L296.94 196.702L296.419 198.477ZM298.857 190.169L293.421 192.006L293.979 190.106L299.425 188.234L298.857 190.169ZM292.52 195.404L291.416 195.948L292.536 192.131C292.869 190.995 292.879 190.066 292.564 189.344C292.24 188.606 291.635 188.107 290.747 187.847C289.86 187.586 289.087 187.68 288.428 188.13C287.772 188.567 287.278 189.354 286.944 190.49L285.824 194.307L285.171 193.247L292.52 195.404Z" fill="white"/>
<path d="M300.023 185.541L287.307 183.092L287.594 181.602L299.659 175.203L299.509 175.984L289.063 173.972L289.413 172.156L302.13 174.605L301.843 176.094L289.777 182.494L289.928 181.712L300.373 183.724L300.023 185.541Z" fill="white"/>
<path d="M298.654 167.573L297.416 167.515L298.283 149.036L299.521 149.094L298.654 167.573Z" fill="white"/>
<path d="M289.873 134.402L289.697 132.56L302.588 131.329L302.764 133.171L289.873 134.402ZM303.471 140.574L303.647 142.416L290.756 143.647L290.58 141.805L303.471 140.574ZM297.003 133.554L297.743 141.307L296.141 141.46L295.4 133.707L297.003 133.554Z" fill="#B6FB0D"/>
<path d="M302.283 128.737L301.045 128.963L295.095 124.687C294.574 124.305 294.13 124.035 293.763 123.876C293.381 123.707 293.044 123.612 292.752 123.59C292.445 123.558 292.158 123.567 291.891 123.615C291.236 123.734 290.763 124.059 290.47 124.588C290.178 125.118 290.113 125.826 290.274 126.712C290.398 127.391 290.625 127.983 290.954 128.487C291.272 128.993 291.704 129.403 292.25 129.718L291.402 131.151C290.695 130.778 290.103 130.215 289.628 129.462C289.138 128.699 288.803 127.825 288.624 126.843C288.463 125.957 288.468 125.16 288.64 124.452C288.8 123.746 289.115 123.168 289.585 122.719C290.052 122.258 290.65 121.961 291.378 121.828C291.791 121.753 292.207 121.734 292.627 121.77C293.048 121.806 293.51 121.935 294.014 122.157C294.518 122.378 295.101 122.724 295.763 123.192L301.064 127.003L300.434 127.569L299.032 119.871L300.616 119.582L302.283 128.737Z" fill="#B6FB0D"/>
<path d="M292.461 117.32L290.774 110.877L292.295 110.479L293.982 116.922L292.461 117.32ZM297.985 115.701L296.072 108.4L297.629 107.992L300.011 117.083L287.483 120.364L285.168 111.524L286.725 111.116L288.571 118.167L297.985 115.701Z" fill="#B6FB0D"/>
<path d="M291.709 103.958L290.564 104.432L283.485 87.34L284.63 86.8657L291.709 103.958Z" fill="white"/>
<path d="M269.626 77.7161L268.68 76.1262L279.809 69.5049L280.755 71.0948L269.626 77.7161ZM284.558 77.4861L285.504 79.076L274.374 85.6974L273.428 84.1075L284.558 77.4861ZM275.71 73.9029L279.692 80.5964L278.309 81.4193L274.326 74.7258L275.71 73.9029Z" fill="white"/>
<path d="M275.86 63.7372L271.838 66.6367L272.519 65.6208L268.363 75.4824L267.205 73.8767L270.726 65.5685L271.353 66.4389L262.347 67.1388L261.276 65.6532L271.935 64.8104L270.767 65.1511L274.788 62.2515L275.86 63.7372Z" fill="white"/>
<path d="M270.686 56.8348L260.842 65.2493L257.56 61.4103C256.823 60.5478 256.33 59.6956 256.081 58.8539C255.832 58.0121 255.825 57.2068 256.06 56.4379C256.295 55.669 256.769 54.98 257.481 54.371C258.194 53.7619 258.948 53.4011 259.744 53.2885C260.531 53.1838 261.325 53.316 262.128 53.685C262.92 54.0619 263.685 54.6817 264.423 55.5442L267.043 58.6098L265.841 58.542L269.484 55.4286L270.686 56.8348ZM265.982 58.4217L265.82 59.6556L263.235 56.6322C262.466 55.7322 261.693 55.2168 260.916 55.086C260.131 54.9458 259.387 55.1762 258.683 55.7772C257.98 56.3783 257.637 57.0774 257.653 57.8748C257.662 58.6627 258.05 59.5067 258.82 60.4067L261.404 63.4301L260.16 63.3983L265.982 58.4217Z" fill="white"/>
<path d="M255.635 50.9837L250.903 46.2973L252.01 45.1799L256.742 49.8663L255.635 50.9837ZM259.566 46.7784L254.203 41.4672L255.335 40.3236L262.013 46.9366L252.9 56.138L246.407 49.7072L247.539 48.5636L252.718 53.6926L259.566 46.7784Z" fill="white"/>
<path d="M247.332 33.4879L240.27 42.3612L243.744 45.1261L242.742 46.3854L234.361 39.7152L235.363 38.4558L238.837 41.2207L245.899 32.3474L247.332 33.4879Z" fill="white"/>
<path d="M236.103 25.2226C236.925 25.768 237.599 26.4147 238.124 27.1626C238.639 27.9037 238.99 28.6914 239.176 29.5256C239.356 30.3701 239.368 31.2218 239.213 32.0808C239.057 32.9397 238.717 33.7648 238.192 34.5562C237.667 35.3476 237.039 35.9818 236.308 36.459C235.577 36.9361 234.791 37.2509 233.95 37.4033C233.102 37.566 232.237 37.5543 231.354 37.3682C230.471 37.182 229.613 36.8128 228.781 36.2606C227.958 35.7151 227.295 35.0753 226.791 34.341C226.269 33.6101 225.918 32.8225 225.738 31.978C225.542 31.137 225.526 30.2904 225.692 29.4383C225.847 28.5793 226.191 27.749 226.722 26.9474C227.254 26.1457 227.886 25.5063 228.617 25.0292C229.337 24.5453 230.127 24.2253 230.985 24.0695C231.826 23.917 232.688 23.9339 233.571 24.12C234.437 24.3096 235.281 24.6771 236.103 25.2226ZM235.193 26.5946C234.597 26.1992 233.979 25.9372 233.339 25.8086C232.689 25.6733 232.056 25.6679 231.44 25.7924C230.808 25.9204 230.222 26.1681 229.682 26.5353C229.132 26.8957 228.66 27.374 228.264 27.9701C227.869 28.5662 227.612 29.1876 227.494 29.8344C227.365 30.4743 227.368 31.1054 227.503 31.7277C227.621 32.3534 227.868 32.9395 228.246 33.4859C228.613 34.0256 229.095 34.4931 229.691 34.8885C230.297 35.2908 230.926 35.5596 231.576 35.6949C232.216 35.8235 232.852 35.8237 233.484 35.6957C234.11 35.578 234.698 35.3389 235.248 34.9785C235.788 34.6113 236.255 34.1296 236.651 33.5335C237.046 32.9374 237.308 32.3194 237.436 31.6794C237.555 31.0327 237.55 30.393 237.422 29.7605C237.287 29.1382 237.036 28.5573 236.669 28.0177C236.291 27.4712 235.799 26.9969 235.193 26.5946Z" fill="white"/>
<path d="M218.73 23.578L212.768 20.6108L213.468 19.203L219.431 22.1702L218.73 23.578ZM221.145 18.353L214.387 14.9901L215.104 13.5491L223.518 17.7363L217.748 29.3299L209.566 25.2582L210.283 23.8173L216.809 27.0648L221.145 18.353Z" fill="white"/>
<path d="M214.182 13.0884L203.976 22.985L202.272 22.3132L201.549 8.10795L203.356 8.82042L203.857 21.8244L203.169 21.553L212.409 12.3895L214.182 13.0884ZM210.671 15.1843L209.664 16.3779L202.882 13.7045L202.926 12.1308L210.671 15.1843Z" fill="white"/>
<path d="M199.7 7.56494L196.042 19.9876L191.198 18.5611C190.109 18.2406 189.231 17.7956 188.563 17.2261C187.895 16.6566 187.45 15.9855 187.227 15.2128C187.005 14.4402 187.026 13.6043 187.291 12.7051C187.555 11.806 187.99 11.092 188.596 10.5632C189.198 10.0462 189.935 9.72942 190.805 9.61275C191.675 9.49608 192.654 9.59799 193.742 9.91847L197.611 11.0576L196.572 11.6388L197.925 7.04241L199.7 7.56494ZM191.395 5.11948L193.226 10.5573L191.327 9.99815L189.46 4.54992L191.395 5.11948ZM196.624 11.4613L197.167 12.5661L193.351 11.4426C192.216 11.1082 191.286 11.0982 190.564 11.4126C189.826 11.7353 189.326 12.3403 189.065 13.2277C188.804 14.115 188.898 14.8883 189.346 15.5475C189.783 16.2033 190.57 16.6984 191.705 17.0328L195.521 18.1563L194.461 18.8085L196.624 11.4613Z" fill="white"/>
<path d="M186.768 3.94665L184.289 16.6572L182.8 16.3668L176.429 4.28647L177.21 4.43874L175.174 14.8795L173.358 14.5254L175.837 1.81488L177.326 2.10526L183.696 14.1856L182.916 14.0333L184.952 3.59253L186.768 3.94665Z" fill="white"/>
<path d="M168.793 5.27139L168.73 6.50931L150.254 5.5766L150.316 4.33868L168.793 5.27139Z" fill="white"/>
</svg>
