<svg width="32" height="32" viewBox="0 0 32 32" fill="none" xmlns="http://www.w3.org/2000/svg">
<path d="M22.5547 0C24.2892 0.192737 25.4455 0.386046 26.4092 0.771484C27.5658 1.3498 28.3369 1.73537 29.3008 2.69922C30.2646 3.66307 30.843 4.62696 31.2285 5.59082C31.614 6.55454 31.9999 7.71079 32 9.44531V22.5547C31.8073 24.2892 31.614 25.4455 31.2285 26.4092C30.6502 27.5658 30.2646 28.3369 29.3008 29.3008C28.3369 30.2646 27.373 30.843 26.4092 31.2285C25.4455 31.614 24.2892 31.9999 22.5547 32H9.44531C7.71078 31.8073 6.55454 31.614 5.59082 31.2285C4.43419 30.6502 3.66307 30.2646 2.69922 29.3008C1.73536 28.3369 1.15703 27.373 0.771484 26.4092C0.386011 25.4455 6.93362e-05 24.2892 0 22.5547V9.44531C0.192737 7.71079 0.386045 6.55454 0.771484 5.59082C1.3498 4.43419 1.73536 3.66307 2.69922 2.69922C3.66307 1.73536 4.62696 1.15703 5.59082 0.771484C6.55454 0.386011 7.71079 7.00848e-05 9.44531 0H22.5547ZM16 8C11.5817 8 8 11.5817 8 16C8 20.4183 11.5817 24 16 24C20.4183 24 24 20.4183 24 16C24 11.5817 20.4183 8 16 8ZM16 10.8574C18.8401 10.8574 21.1426 13.1599 21.1426 16C21.1426 18.8401 18.8401 21.1426 16 21.1426C13.1599 21.1426 10.8574 18.8401 10.8574 16C10.8574 13.1599 13.1599 10.8574 16 10.8574ZM24.7998 4.7998C23.4744 4.79991 22.4004 5.87478 22.4004 7.2002C22.4005 8.52552 23.4745 9.5995 24.7998 9.59961C26.1252 9.59961 27.2001 8.52559 27.2002 7.2002C27.2002 5.87471 26.1253 4.7998 24.7998 4.7998Z" fill="#040404"/>
</svg>
