<svg width="48" height="49" viewBox="0 0 48 49" fill="none" xmlns="http://www.w3.org/2000/svg">
<g clip-path="url(#clip0_1371_3027)">
<path d="M12 21V17C12 10.38 14 5 24 5C34 5 36 10.38 36 17V21" stroke="white" stroke-width="1.5" stroke-linecap="round" stroke-linejoin="round"/>
<path d="M24 38C26.7614 38 29 35.7614 29 33C29 30.2386 26.7614 28 24 28C21.2386 28 19 30.2386 19 33C19 35.7614 21.2386 38 24 38Z" stroke="white" stroke-width="1.5" stroke-linecap="round" stroke-linejoin="round"/>
<path d="M34 45H14C6 45 4 43 4 35V31C4 23 6 21 14 21H34C42 21 44 23 44 31V35C44 43 42 45 34 45Z" stroke="white" stroke-width="1.5" stroke-linecap="round" stroke-linejoin="round"/>
</g>
<defs>
<clipPath id="clip0_1371_3027">
<rect width="48" height="48" fill="white" transform="translate(0 0.5)"/>
</clipPath>
</defs>
</svg>
