<svg width="127" height="126" viewBox="0 0 127 126" fill="none" xmlns="http://www.w3.org/2000/svg">
<path d="M103.304 14.0613L95.8198 23.2871L95.7517 22.1425L98.5614 24.4219L97.5748 25.638L93.9823 22.7236L101.92 12.9386L103.304 14.0613ZM94.4565 8.06562C95.3112 8.5532 95.9524 9.20913 96.3802 10.0334C96.7976 10.8517 96.9664 11.7908 96.8868 12.8506C96.7968 13.9045 96.4129 15.0255 95.735 16.2138C95.0572 17.402 94.2876 18.3031 93.4262 18.9169C92.5545 19.5248 91.6602 19.8574 90.7433 19.9146C89.8161 19.9659 88.9251 19.7478 88.0704 19.2602C87.2261 18.7786 86.5901 18.1256 86.1623 17.3013C85.7345 16.4771 85.5657 15.538 85.6557 14.4841C85.7457 13.4303 86.1297 12.3092 86.8075 11.121C87.4854 9.93271 88.255 9.03165 89.1163 8.4178C89.9777 7.80394 90.872 7.47138 91.7992 7.42009C92.7265 7.36881 93.6122 7.58399 94.4565 8.06562ZM93.6627 9.45713C93.0894 9.13009 92.4999 9.00103 91.8942 9.06994C91.278 9.1329 90.6717 9.4087 90.0752 9.89733C89.4683 10.38 88.9002 11.0852 88.371 12.0129C87.8418 12.9405 87.5239 13.7884 87.4173 14.5565C87.3003 15.3187 87.3714 15.981 87.6308 16.5434C87.8798 17.0999 88.2909 17.5417 88.8642 17.8687C89.4375 18.1957 90.0322 18.3278 90.6484 18.2648C91.2645 18.2018 91.8761 17.929 92.483 17.4463C93.0795 16.9577 93.6423 16.2495 94.1715 15.3219C94.7007 14.3942 95.0239 13.5493 95.1409 12.7871C95.2475 12.019 95.1711 11.3538 94.9117 10.7913C94.6523 10.2289 94.236 9.78416 93.6627 9.45713ZM81.1641 2.46307L79.2918 11.8175L77.5445 11.4678L74.9051 3.74357L75.6111 3.88488L70.0962 9.97701L68.5077 9.65906L70.38 0.304599L71.9156 0.611943L70.4248 8.06021L70.1742 7.84484L75.1983 2.37041L75.9396 2.51878L78.4625 9.63229L78.1131 9.63577L79.6109 2.1522L81.1641 2.46307ZM65.6175 -0.0735942L65.9776 9.45961L64.2508 9.52483L63.9885 2.58178L58.405 9.74565L56.8401 9.80476L56.48 0.271559L58.2068 0.206333L58.469 7.14938L64.0346 -0.0138038L65.6175 -0.0735942ZM51.8358 0.966822L54.2747 10.1898L52.6041 10.6316L51.5688 6.71615L46.3134 8.10587L47.3488 12.0213L45.6782 12.463L43.2393 3.24007L44.9099 2.7983L45.9315 6.66151L51.1868 5.2718L50.1652 1.40859L51.8358 0.966822ZM33.1102 7.65383L38.9488 18.0001L37.8589 17.6437L41.0098 15.8656L41.7795 17.2295L37.7507 19.503L31.5583 8.52961L33.1102 7.65383ZM24.2889 13.6777C25.0566 13.0621 25.9023 12.7069 26.8261 12.6122C27.7406 12.5249 28.676 12.7132 29.6323 13.1769C30.5792 13.648 31.4806 14.4173 32.3364 15.4845C33.1922 16.5518 33.7472 17.5988 34.0013 18.6255C34.2461 19.6597 34.2266 20.6136 33.9427 21.4873C33.6495 22.3684 33.119 23.1168 32.3514 23.7324C31.5931 24.3404 30.752 24.6918 29.8282 24.7866C28.9044 24.8813 27.969 24.6931 27.022 24.2219C26.0751 23.7507 25.1737 22.9815 24.3179 21.9143C23.4621 20.847 22.9071 19.8 22.653 18.7733C22.3988 17.7466 22.4183 16.7927 22.7116 15.9115C23.0048 15.0304 23.5306 14.2857 24.2889 13.6777ZM25.2911 14.9275C24.7762 15.3404 24.4394 15.8411 24.2808 16.4298C24.1128 17.0259 24.1463 17.6912 24.3814 18.4256C24.6071 19.1675 25.0541 19.955 25.7222 20.7882C26.3903 21.6214 27.0619 22.2288 27.737 22.6103C28.4028 22.9994 29.0448 23.1767 29.6633 23.1423C30.2723 23.1153 30.8343 22.8954 31.3492 22.4826C31.8641 22.0697 32.2055 21.5652 32.3735 20.969C32.5415 20.3729 32.5127 19.7038 32.2869 18.962C32.0518 18.2276 31.6002 17.4438 30.9321 16.6106C30.264 15.7774 29.597 15.1662 28.9313 14.7772C28.2562 14.3956 27.6094 14.2221 26.991 14.2565C26.3726 14.2909 25.806 14.5146 25.2911 14.9275ZM14.1978 23.9614L22.1921 29.1674L21.2197 30.6607L13.0673 30.2493L13.4602 29.646L17.0745 37.026L16.1905 38.3835L8.19617 33.1775L9.05073 31.8653L15.416 36.0104L15.1231 36.1633L11.9006 29.4681L12.3132 28.8346L19.8552 29.1277L19.7289 29.4536L13.3334 25.2888L14.1978 23.9614ZM6.07537 37.4989L15.0805 40.6482L14.5101 42.2794L7.95161 39.9857L12.5789 47.8014L12.0619 49.2796L3.05675 46.1303L3.6272 44.4991L10.1857 46.7928L5.55246 38.9941L6.07537 37.4989ZM2.00418 50.6897L11.4775 51.8155L11.2736 53.5314L7.2519 53.0535L6.61039 58.4515L10.6321 58.9294L10.4282 60.6454L0.954835 59.5195L1.15876 57.8036L5.12683 58.2752L5.76834 52.8772L1.80026 52.4056L2.00418 50.6897ZM2.2317 75.8343L13.8243 73.2369L13.168 74.1771L12.377 70.6467L13.9051 70.3043L14.9165 74.8184L2.62131 77.5732L2.2317 75.8343ZM5.46625 86.0293C5.0968 85.1173 4.99921 84.2052 5.17349 83.293C5.35227 82.392 5.80094 81.5499 6.5195 80.7668C7.24256 79.9949 8.23806 79.3521 9.50597 78.8385C10.7739 78.3248 11.9361 78.0936 12.9926 78.1447C14.0535 78.2069 14.9618 78.4992 15.7172 79.0218C16.4772 79.5555 17.0419 80.2784 17.4114 81.1904C17.7763 82.0913 17.8717 82.9978 17.6974 83.91C17.5231 84.8222 17.0744 85.6642 16.3514 86.4362C15.6283 87.2081 14.6328 87.8509 13.3649 88.3645C12.097 88.8782 10.9348 89.1094 9.87831 89.0583C8.82184 89.0073 7.91362 88.7149 7.15363 88.1812C6.39365 87.6475 5.83119 86.9302 5.46625 86.0293ZM6.95105 85.4278C7.19885 86.0395 7.58194 86.5058 8.10033 86.8266C8.62322 87.1586 9.27014 87.3173 10.0411 87.3028C10.8165 87.2994 11.6992 87.0972 12.6891 86.6962C13.6789 86.2952 14.4535 85.8261 15.0127 85.2889C15.5764 84.7627 15.9304 84.1985 16.0749 83.5962C16.2238 83.005 16.1744 82.4036 15.9266 81.7919C15.6788 81.1802 15.2934 80.7083 14.7705 80.3764C14.2476 80.0444 13.5985 79.8801 12.823 79.8835C12.0521 79.898 11.1717 80.1058 10.1818 80.5068C9.19193 80.9078 8.41514 81.3713 7.85144 81.8975C7.29225 82.4347 6.94043 83.0045 6.796 83.6068C6.65156 84.2091 6.70325 84.8161 6.95105 85.4278ZM12.4252 98.6518L19.6973 92.477L20.8507 93.8353L18.1285 101.531L17.6624 100.982L25.7673 99.6256L26.8158 100.86L19.5437 107.035L18.5301 105.842L24.3204 100.925L24.3833 101.249L17.0466 102.426L16.5573 101.849L18.9919 94.7053L19.2681 94.9194L13.4505 99.8592L12.4252 98.6518ZM23.0535 110.291L28.6748 102.583L30.071 103.601L25.977 109.215L34.7976 107.048L36.0628 107.971L30.4415 115.679L29.0454 114.661L33.1394 109.047L24.3334 111.224L23.0535 110.291ZM34.5041 118.006L38.3189 109.262L39.9028 109.953L38.2833 113.665L43.2657 115.839L44.8852 112.127L46.4691 112.818L42.6543 121.562L41.0704 120.871L42.6683 117.208L37.6859 115.035L36.088 118.697L34.5041 118.006ZM58.6602 125.004L59.5075 113.154L60.2192 114.053L56.6104 113.795L56.7221 112.233L61.3363 112.563L60.4376 125.131L58.6602 125.004ZM69.3462 124.849C68.3663 124.939 67.4649 124.768 66.6421 124.338C65.8312 123.906 65.1547 123.233 64.6128 122.319C64.0828 121.404 63.7552 120.265 63.6299 118.903C63.5047 117.541 63.6193 116.361 63.9735 115.364C64.3397 114.367 64.8822 113.582 65.6008 113.01C66.3314 112.436 67.1866 112.105 68.1665 112.015C69.1344 111.926 70.0298 112.096 70.8527 112.527C71.6755 112.957 72.352 113.63 72.882 114.546C73.412 115.461 73.7396 116.6 73.8648 117.962C73.99 119.324 73.8755 120.504 73.5212 121.5C73.167 122.497 72.6245 123.282 71.8939 123.855C71.1633 124.428 70.3141 124.76 69.3462 124.849ZM69.1995 123.253C69.8568 123.193 70.4139 122.961 70.8709 122.557C71.3398 122.153 71.6787 121.579 71.8877 120.837C72.1085 120.094 72.1701 119.19 72.0724 118.127C71.9746 117.063 71.7494 116.186 71.3967 115.496C71.0559 114.804 70.6182 114.302 70.0833 113.989C69.5604 113.676 68.9704 113.55 68.3131 113.61C67.6559 113.67 67.0928 113.903 66.6239 114.307C66.155 114.712 65.8101 115.286 65.5892 116.029C65.3802 116.772 65.3246 117.675 65.4224 118.738C65.5201 119.802 65.7394 120.679 66.0801 121.371C66.4328 122.062 66.8766 122.563 67.4114 122.875C67.9463 123.188 68.5423 123.314 69.1995 123.253ZM83.4481 121.821L79.6278 113.079L81.2606 112.365L87.8468 117.187L87.1871 117.476L88.2209 109.324L89.7054 108.675L93.5258 117.416L92.0908 118.044L89.0489 111.083L89.3777 111.116L88.3926 118.481L87.6998 118.784L81.5587 114.396L81.8433 114.193L84.8996 121.186L83.4481 121.821ZM97.6642 114.979L91.881 107.392L93.2553 106.344L97.4672 111.87L97.9079 102.798L99.1534 101.849L104.936 109.436L103.562 110.483L99.3503 104.958L98.9239 114.019L97.6642 114.979ZM108.319 106.223L101.045 100.051L102.163 98.733L105.251 101.353L108.768 97.2084L105.68 94.588L106.798 93.2705L114.072 99.4428L112.954 100.76L109.907 98.175L106.39 102.32L109.437 104.905L108.319 106.223ZM121.984 85.1206L110.889 80.8737L111.956 80.4533L110.663 83.8322L109.2 83.2724L110.854 78.9521L122.621 83.4564L121.984 85.1206ZM124.907 74.8037C124.714 75.7687 124.295 76.5845 123.648 77.2511C123.004 77.9058 122.167 78.3631 121.136 78.6228C120.108 78.8707 118.923 78.8611 117.581 78.5939C116.24 78.3267 115.141 77.8816 114.287 77.2587C113.434 76.6239 112.836 75.8808 112.492 75.0291C112.15 74.1657 112.075 73.2515 112.267 72.2864C112.457 71.3331 112.875 70.5232 113.522 69.8567C114.168 69.1902 115.006 68.7329 116.034 68.485C117.062 68.237 118.247 68.2467 119.589 68.5138C120.93 68.781 122.029 69.2261 122.883 69.8491C123.738 70.472 124.337 71.2152 124.679 72.0786C125.02 72.9421 125.097 73.8504 124.907 74.8037ZM123.336 74.4908C123.464 73.8435 123.4 73.2434 123.143 72.6906C122.889 72.126 122.435 71.638 121.783 71.2267C121.133 70.8036 120.285 70.4878 119.237 70.2792C118.19 70.0706 117.285 70.0372 116.522 70.179C115.762 70.3091 115.157 70.5861 114.705 71.0101C114.256 71.4223 113.967 71.952 113.838 72.5993C113.709 73.2466 113.772 73.8525 114.027 74.4172C114.281 74.9818 114.734 75.4756 115.383 75.8987C116.036 76.31 116.885 76.62 117.933 76.8286C118.98 77.0372 119.884 77.0764 120.644 76.9464C121.406 76.8046 122.013 76.5217 122.465 76.0977C122.916 75.6737 123.207 75.1381 123.336 74.4908ZM126.046 60.4492L116.574 61.5875L116.362 59.8182L122.878 54.9016L122.963 55.6165L115.455 52.2765L115.262 50.668L124.734 49.5297L124.921 51.0846L117.379 51.9909L117.505 51.6856L124.274 54.752L124.364 55.5026L118.392 60.1181L118.28 59.7871L125.857 58.8765L126.046 60.4492ZM123.591 44.8605L114.66 48.2146L114.053 46.5969L120.557 44.1541L111.996 41.1204L111.445 39.6544L120.376 36.3003L120.984 37.918L114.479 40.3608L123.034 43.3777L123.591 44.8605ZM118.263 32.1271L110.269 37.3332L109.326 35.8852L112.72 33.6751L109.753 29.1199L106.359 31.33L105.416 29.882L113.411 24.6759L114.354 26.1239L111.005 28.3046L113.971 32.8598L117.32 30.6791L118.263 32.1271Z" fill="white"/>
</svg>
