<svg width="68" height="70" viewBox="0 0 68 70" fill="none" xmlns="http://www.w3.org/2000/svg">
<path d="M52.6349 18V52C52.6349 65.6 50.2202 69 40.5615 69H26.0736C16.4149 69 14.0002 65.6 14.0002 52V18C14.0002 4.4 16.4149 1 26.0736 1H40.5615C50.2202 1 52.6349 4.4 52.6349 18Z" stroke="white" stroke-width="2" stroke-linecap="round" stroke-linejoin="round"/>
<path d="M38.837 62H27.7986" stroke="white" stroke-width="2" stroke-linecap="round" stroke-linejoin="round"/>
<path d="M60.6952 28.4885C61.7586 27.6658 61.7236 26.0492 60.6256 25.2733L44.4022 13.8082C43.0774 12.872 41.2479 13.8194 41.2479 15.4415V18.6209C41.2479 19.5537 40.5966 20.3557 39.7008 20.6157C28.8333 23.7702 24.7763 32.4236 23.2618 38.4448C22.7853 40.3392 25.176 41.3419 26.639 40.0476C29.7096 37.3309 34.2259 34.4375 39.5003 34.4849C40.5026 34.4939 41.2479 35.3575 41.2479 36.3598V39.4571C41.2479 41.119 43.1572 42.0559 44.4717 41.039L60.6952 28.4885Z" fill="#B6FB0D"/>
</svg>
