<svg width="48" height="48" viewBox="0 0 48 48" fill="none" xmlns="http://www.w3.org/2000/svg">
  <path d="M37 16.5C37 10 33.42 8.5 29 8.5C29 10.98 26.98 13 24.5 13H17.5C16.26 13 15.1399 12.5 14.3199 11.68C13.4999 10.86 13 9.74 13 8.5C8.58 8.5 5 10 5 16.5V36C5 42 8.58 44 13 44H29" stroke="white" stroke-width="1.5" stroke-linecap="round" stroke-linejoin="round" />
  <path d="M26 30.8416V34.8416C26 36.8416 27 37.8416 29 37.8416H30.43C30.8 37.8416 31.17 37.9516 31.49 38.1416L34.41 39.9716C36.93 41.5516 39 40.4016 39 37.4316V28.2516C39 25.2716 36.93 24.1316 34.41 25.7116L31.49 27.5416C31.17 27.7316 30.8 27.8416 30.43 27.8416H29C27 27.8416 26 28.8416 26 30.8416Z" fill="#B6FB0D" />
  <path d="M29 8.5C29 10.98 26.98 13 24.5 13H17.5C16.26 13 15.1399 12.5 14.3199 11.68C13.4999 10.86 13 9.74 13 8.5C13 6.02 15.02 4 17.5 4H24.5C25.74 4 26.8601 4.50001 27.6801 5.32001C28.5001 6.14001 29 7.26 29 8.5Z" stroke="white" stroke-width="1.5" stroke-linecap="round" stroke-linejoin="round" />
  <path d="M13 26H21" stroke="#B6FB0D" stroke-width="1.5" stroke-linecap="round" stroke-linejoin="round" />
  <path d="M13 20H29" stroke="#B6FB0D" stroke-width="1.5" stroke-linecap="round" stroke-linejoin="round" />
  <path d="M43 29C44.78 31.37 44.78 34.63 43 37" stroke="#B6FB0D" stroke-width="1.5" stroke-linecap="round" stroke-linejoin="round" />
</svg>