<svg width="48" height="48" viewBox="0 0 48 48" fill="none" xmlns="http://www.w3.org/2000/svg">
  <path d="M40 16.5C40 10 36.42 8.5 32 8.5C32 10.98 29.98 13 27.5 13H20.5C19.26 13 18.1399 12.5 17.3199 11.68C16.4999 10.86 16 9.74 16 8.5C11.58 8.5 8 10 8 16.5V36C8 42 11.58 44 16 44H32" stroke="#040404" stroke-width="1.5" stroke-linecap="round" stroke-linejoin="round" />
  <path d="M29 30.8416V34.8416C29 36.8416 30 37.8416 32 37.8416H33.43C33.8 37.8416 34.17 37.9516 34.49 38.1416L37.41 39.9716C39.93 41.5516 42 40.4016 42 37.4316V28.2516C42 25.2716 39.93 24.1316 37.41 25.7116L34.49 27.5416C34.17 27.7316 33.8 27.8416 33.43 27.8416H32C30 27.8416 29 28.8416 29 30.8416Z" stroke="#040404" stroke-width="1.5" />
  <path d="M32 8.5C32 10.98 29.98 13 27.5 13H20.5C19.26 13 18.1399 12.5 17.3199 11.68C16.4999 10.86 16 9.74 16 8.5C16 6.02 18.02 4 20.5 4H27.5C28.74 4 29.8601 4.50001 30.6801 5.32001C31.5001 6.14001 32 7.26 32 8.5Z" stroke="#040404" stroke-width="1.5" stroke-linecap="round" stroke-linejoin="round" />
  <path d="M16 26H24" stroke="#040404" stroke-width="1.5" stroke-linecap="round" stroke-linejoin="round" />
  <path d="M16 20H32" stroke="#040404" stroke-width="1.5" stroke-linecap="round" stroke-linejoin="round" />
</svg>