<svg width="60" height="60" viewBox="0 0 60 60" fill="none" xmlns="http://www.w3.org/2000/svg">
<path d="M18.75 40L40 18.75" stroke="#B6FB0D" stroke-width="1.5" stroke-linecap="round" stroke-linejoin="round"/>
<path d="M21.25 25C23.3211 25 25 23.3211 25 21.25C25 19.179 23.3211 17.5 21.25 17.5C19.179 17.5 17.5 19.179 17.5 21.25C17.5 23.3211 19.179 25 21.25 25Z" stroke="#B6FB0D" stroke-width="1.5" stroke-linecap="round" stroke-linejoin="round"/>
<path d="M36.25 42.5C38.321 42.5 40 40.821 40 38.75C40 36.6789 38.321 35 36.25 35C34.1789 35 32.5 36.6789 32.5 38.75C32.5 40.821 34.1789 42.5 36.25 42.5Z" stroke="#B6FB0D" stroke-width="1.5" stroke-linecap="round" stroke-linejoin="round"/>
<path d="M30 55C43.8071 55 55 43.8071 55 30C55 16.1929 43.8071 5 30 5C16.1929 5 5 16.1929 5 30C5 43.8071 16.1929 55 30 55Z" stroke="white" stroke-width="1.5" stroke-linecap="round" stroke-linejoin="round"/>
</svg>
