<svg width="36" height="36" viewBox="0 0 36 36" fill="none" xmlns="http://www.w3.org/2000/svg">
<path d="M0 18C0 8.05888 8.05888 0 18 0C27.9411 0 36 8.05888 36 18C36 27.9411 27.9411 36 18 36C8.05888 36 0 27.9411 0 18Z" fill="#B6FB0D"/>
<path d="M18.1245 26H15.8996L12.517 19.93L9.17063 26H7L11.5222 18.3045L7.23515 11H9.42387L12.5713 16.5556L15.7911 11H17.8893L13.5662 18.2839L18.1245 26Z" fill="#040404"/>
<path d="M29 15.2593C29 16.3155 28.7407 17.2551 28.2222 18.0782C27.7036 18.8875 26.9922 19.3813 26.0877 19.5597C25.7501 19.6145 25.4305 19.6488 25.129 19.6626C24.8396 19.6763 24.4839 19.6831 24.0618 19.6831H21.3485V26H19.5216V11H25.0567C26.2626 11 27.2213 11.3635 27.9328 12.0905C28.6443 12.8176 29 13.8738 29 15.2593ZM27.173 15.4444C27.173 14.5665 26.9198 13.9081 26.4133 13.4691C25.9068 13.0165 25.2557 12.7901 24.4598 12.7901H21.3485V17.8724H24.3693C25.2255 17.8724 25.8767 17.7147 26.3229 17.3992C26.8897 17.0014 27.173 16.3498 27.173 15.4444Z" fill="#040404"/>
</svg>
