<svg width="64" height="65" viewBox="0 0 64 65" fill="none" xmlns="http://www.w3.org/2000/svg">
<path d="M32.4268 29.4867C32.1602 29.46 31.8402 29.46 31.5468 29.4867C25.2002 29.2733 20.1602 24.0733 20.1602 17.6733C20.1602 11.14 25.4402 5.83334 32.0002 5.83334C38.5335 5.83334 43.8402 11.14 43.8402 17.6733C43.8135 24.0733 38.7735 29.2733 32.4268 29.4867Z" fill="#262626"/>
<path d="M19.0924 39.3267C12.6391 43.6467 12.6391 50.6867 19.0924 54.98C26.4258 59.8867 38.4524 59.8867 45.7858 54.98C52.2391 50.66 52.2391 43.62 45.7858 39.3267C38.4791 34.4467 26.4524 34.4467 19.0924 39.3267Z" fill="#262626"/>
</svg>
