<svg width="37" height="36" viewBox="0 0 37 36" fill="none" xmlns="http://www.w3.org/2000/svg">
  <path d="M28.4167 29.25H22.4167" stroke="#040404" stroke-width="2" stroke-linecap="round" stroke-linejoin="round" />
  <path d="M25.4167 32.25V26.25" stroke="#040404" stroke-width="2" stroke-linecap="round" stroke-linejoin="round" />
  <path d="M18.9066 16.305C18.7566 16.29 18.5766 16.29 18.4116 16.305C14.8416 16.185 12.0066 13.26 12.0066 9.66C11.9916 5.985 14.9766 3 18.6516 3C22.3266 3 25.3116 5.985 25.3116 9.66C25.3116 13.26 22.4616 16.185 18.9066 16.305Z" stroke="#040404" stroke-width="2" stroke-linecap="round" stroke-linejoin="round" />
  <path d="M18.6518 32.715C15.9218 32.715 13.2068 32.025 11.1368 30.645C7.50681 28.215 7.50681 24.255 11.1368 21.84C15.2618 19.08 22.0268 19.08 26.1518 21.84" stroke="#040404" stroke-width="2" stroke-linecap="round" stroke-linejoin="round" />
</svg>