<svg width="31" height="35" viewBox="0 0 31 35" fill="none" xmlns="http://www.w3.org/2000/svg">
<path d="M30.9616 8.80563C28.7323 8.80557 26.5943 7.91994 25.018 6.34356C23.4417 4.76718 22.5561 2.62919 22.5562 0.399902H16.5508V23.9157C16.5497 24.9879 16.2112 26.0325 15.5832 26.9015C14.9553 27.7704 14.0697 28.4198 13.0521 28.7574C12.0345 29.095 10.9365 29.1037 9.9136 28.7824C8.89074 28.4611 7.99495 27.826 7.3532 26.9671C6.71146 26.1082 6.3563 25.0692 6.33808 23.9972C6.31985 22.9252 6.63948 21.8747 7.25166 20.9945C7.86384 20.1143 8.73752 19.4491 9.74886 19.0932C10.7602 18.7373 11.8579 18.7088 12.8864 19.0116V13.1738C10.7007 12.8791 8.47706 13.2582 6.51246 14.2605C4.54786 15.2628 2.93579 16.8406 1.89152 18.7832C0.847253 20.7259 0.420483 22.9408 0.6682 25.1324C0.915917 27.3239 1.82633 29.3878 3.27787 31.0483C4.72941 32.7088 6.65299 33.8869 8.79175 34.4254C10.9305 34.9639 13.1827 34.8371 15.2474 34.0619C17.3122 33.2868 19.0914 31.9001 20.3474 30.0872C21.6033 28.2742 22.2763 26.1212 22.2765 23.9157L22.4516 12.0292C24.9191 13.8406 27.9012 14.8152 30.9621 14.8106L30.9616 8.80563Z" fill="#1B1B1B"/>
</svg>
