<svg width="221" height="163" viewBox="0 0 221 163" fill="none" xmlns="http://www.w3.org/2000/svg">
<path d="M1.055 92.7167C0.503547 92.6863 0.0318868 93.1087 0.00151342 93.6602C-0.02886 94.2116 0.393555 94.6833 0.945004 94.7137L1.055 92.7167ZM186.919 0.605477C186.701 0.0979902 186.113 -0.136775 185.605 0.081114L177.335 3.63182C176.828 3.84971 176.593 4.43774 176.811 4.94523C177.029 5.45272 177.617 5.68748 178.125 5.46959L185.476 2.31341L188.632 9.6645C188.85 10.172 189.438 10.4067 189.945 10.1889C190.453 9.97097 190.687 9.38294 190.47 8.87545L186.919 0.605477ZM1 93.7152L0.945004 94.7137C25.19 96.0491 63.5409 92.9972 99.8883 79.4992C136.24 65.9996 170.707 42.0016 186.929 1.37078L186 1L185.071 0.629219C169.133 40.5509 135.234 64.2398 99.1921 77.6243C63.1461 91.0104 25.0768 94.0398 1.055 92.7167L1 93.7152Z" fill="#B6FB0D" />
<rect x="25.5" y="123.5" width="39" height="39" rx="5.5" stroke="#B6FB0D"/>
<path d="M43.46 142.2H39.86V139.1C42.52 138.94 43.88 137.84 44.58 136.12H49.1V151H43.46V142.2Z" fill="white"/>
<rect x="77.5" y="103.5" width="39" height="59" rx="5.5" stroke="#B6FB0D"/>
<path d="M106.12 141H87V139.26C87 137.24 87.24 133.82 94.98 132.14C95.92 131.92 97.08 131.7 97.86 131.56C99.74 131.18 99.94 130.9 99.94 130.44C99.94 129.92 99.5 129.46 96.68 129.46C93.26 129.46 93.1 130.82 93.04 131.4H87.24V131.26C87.24 129.38 87.98 125.84 96.08 125.84H96.94C104.44 125.84 105.9 128.02 105.9 130.46V130.54C105.9 133.02 104.48 134.18 99.12 135.04L95.92 135.58C92.5 136.16 91.94 136.84 91.94 137.26H100.86V135.5H106.12V141Z" fill="white"/>
<rect x="129.5" y="73.5" width="39" height="89" rx="5.5" stroke="#B6FB0D"/>
<path d="M149.12 126.28H148.16C139.64 126.28 138.74 122.36 138.74 120.68V120.5H144.6C144.66 120.84 144.84 122.54 148.58 122.54C152.32 122.54 152.64 121.68 152.64 121.1C152.64 120.54 152.28 120.06 150.8 120.06H145.82V116.5H150.66C152.04 116.5 152.34 116.1 152.34 115.64V115.62C152.34 115.1 152.08 114.48 148.4 114.48C144.72 114.48 144.68 115.74 144.64 116.04H138.82V115.84C138.82 114.34 139.54 110.84 147.94 110.84H148.8C157.36 110.84 158.22 113.04 158.22 114.68V114.8C158.22 116.28 156.8 117.12 155.6 117.34C157.04 117.66 158.76 118.64 158.76 120.98V121.12C158.76 123.58 157.2 126.28 149.12 126.28Z" fill="white"/>
<rect x="181.5" y="33.5" width="39" height="129" rx="5.5" stroke="#B6FB0D"/>
<path d="M190.76 99.94L201.16 91.04H207.4V99.32H210.5V103.16H207.4V106H201.74V103.16H190.76V99.94ZM201.74 99.32V94.88L196.54 99.32H201.74Z" fill="white"/>
</svg>
