<svg width="33" height="32" viewBox="0 0 33 32" fill="none" xmlns="http://www.w3.org/2000/svg">
<path d="M24.3305 9.54663C24.2505 9.5333 24.1572 9.5333 24.0772 9.54663C22.2372 9.47996 20.7705 7.9733 20.7705 6.10663C20.7705 4.19996 22.3038 2.66663 24.2105 2.66663C26.1172 2.66663 27.6505 4.2133 27.6505 6.10663C27.6372 7.9733 26.1705 9.47996 24.3305 9.54663Z" stroke="#B6FB0D" stroke-width="2" stroke-linecap="round" stroke-linejoin="round"/>
<path d="M22.957 19.2534C24.7837 19.5601 26.797 19.2401 28.2103 18.2934C30.0903 17.0401 30.0903 14.9867 28.2103 13.7334C26.7837 12.7867 24.7437 12.4667 22.917 12.7867" stroke="#B6FB0D" stroke-width="2" stroke-linecap="round" stroke-linejoin="round"/>
<path d="M8.29022 9.54663C8.37022 9.5333 8.46355 9.5333 8.54355 9.54663C10.3835 9.47996 11.8502 7.9733 11.8502 6.10663C11.8502 4.19996 10.3169 2.66663 8.41022 2.66663C6.50355 2.66663 4.97021 4.2133 4.97021 6.10663C4.98355 7.9733 6.45022 9.47996 8.29022 9.54663Z" stroke="#B6FB0D" stroke-width="2" stroke-linecap="round" stroke-linejoin="round"/>
<path d="M9.66333 19.2534C7.83666 19.5601 5.82333 19.2401 4.41 18.2934C2.53 17.0401 2.53 14.9867 4.41 13.7334C5.83667 12.7867 7.87666 12.4667 9.70333 12.7867" stroke="#B6FB0D" stroke-width="1.5" stroke-linecap="round" stroke-linejoin="round"/>
<path d="M16.3334 19.5067C16.2534 19.4934 16.1601 19.4934 16.0801 19.5067C14.2401 19.44 12.7734 17.9334 12.7734 16.0667C12.7734 14.16 14.3068 12.6267 16.2134 12.6267C18.1201 12.6267 19.6534 14.1734 19.6534 16.0667C19.6401 17.9334 18.1734 19.4534 16.3334 19.5067Z" stroke="white" stroke-width="1.5" stroke-linecap="round" stroke-linejoin="round"/>
<path d="M12.4535 23.7067C10.5735 24.9601 10.5735 27.0134 12.4535 28.2667C14.5868 29.6934 18.0801 29.6934 20.2135 28.2667C22.0935 27.0134 22.0935 24.9601 20.2135 23.7067C18.0935 22.2934 14.5868 22.2934 12.4535 23.7067Z" stroke="white" stroke-width="1.5" stroke-linecap="round" stroke-linejoin="round"/>
</svg>
