<svg width="33" height="32" viewBox="0 0 33 32" fill="none" xmlns="http://www.w3.org/2000/svg">
  <path d="M23.125 22.6C26.765 18.96 26.765 13.04 23.125 9.40002" stroke="white" stroke-width="2" stroke-miterlimit="10" stroke-linecap="round" stroke-linejoin="round" />
  <path d="M9.92531 9.40002C6.28531 13.04 6.28531 18.96 9.92531 22.6" stroke="white" stroke-width="2" stroke-miterlimit="10" stroke-linecap="round" stroke-linejoin="round" />
  <path d="M13.418 18.1733C13.418 19.3733 14.3513 20.3467 15.498 20.3467H17.8446C18.8446 20.3467 19.658 19.4933 19.658 18.4533C19.658 17.32 19.1646 16.9067 18.418 16.6533L14.6713 15.3467C13.9379 15.0933 13.4313 14.68 13.4313 13.5467C13.4313 12.4933 14.2446 11.6533 15.2446 11.6533H17.5913C18.7379 11.6533 19.6713 12.6267 19.6713 13.8267" stroke="#B6FB0D" stroke-width="2" stroke-linecap="round" stroke-linejoin="round" />
  <path d="M16.5254 10.4V21.6" stroke="#B6FB0D" stroke-width="1.5" stroke-linecap="round" stroke-linejoin="round" />
  <path d="M16.5257 29.3333C23.8895 29.3333 29.8591 23.3638 29.8591 16C29.8591 8.63616 23.8895 2.66663 16.5257 2.66663C9.16192 2.66663 3.19238 8.63616 3.19238 16C3.19238 23.3638 9.16192 29.3333 16.5257 29.3333Z" stroke="#B6FB0D" stroke-width="1.5" stroke-miterlimit="10" stroke-linecap="round" stroke-linejoin="round" />
</svg>