<svg width="36" height="36" viewBox="0 0 36 36" fill="none" xmlns="http://www.w3.org/2000/svg">
<path d="M27.21 32.4301C25.89 32.8201 24.33 33.0001 22.5 33.0001H13.5C11.67 33.0001 10.11 32.8201 8.79004 32.4301C9.12004 28.5301 13.125 25.4551 18 25.4551C22.875 25.4551 26.88 28.5301 27.21 32.4301Z" stroke="#040404" stroke-width="2" stroke-linecap="round" stroke-linejoin="round"/>
<path d="M33 13.5V22.5C33 28.17 31.29 31.275 27.21 32.43C25.89 32.82 24.33 33 22.5 33H13.5C11.67 33 10.11 32.82 8.79 32.43C4.71 31.275 3 28.17 3 22.5V13.5C3 6 6 3 13.5 3H22.5C30 3 33 6 33 13.5Z" stroke="#040404" stroke-width="2" stroke-linecap="round" stroke-linejoin="round"/>
<path d="M23.3699 15.87C23.3699 18.84 20.9699 21.255 17.9999 21.255C15.0299 21.255 12.6299 18.84 12.6299 15.87C12.6299 12.9 15.0299 10.5 17.9999 10.5C20.9699 10.5 23.3699 12.9 23.3699 15.87Z" stroke="#040404" stroke-width="2" stroke-linecap="round" stroke-linejoin="round"/>
</svg>
