<svg width="48" height="48" viewBox="0 0 48 48" fill="none" xmlns="http://www.w3.org/2000/svg">
  <path d="M18.6727 21.74C18.4727 21.72 18.2327 21.72 18.0127 21.74C13.2527 21.58 9.47266 17.68 9.47266 12.88C9.47266 7.98 13.4327 4 18.3527 4C23.2527 4 27.2327 7.98 27.2327 12.88C27.2127 17.68 23.4327 21.58 18.6727 21.74Z" stroke="white" stroke-width="2" stroke-linecap="round" stroke-linejoin="round" />
  <path d="M28.693 40.86C23.193 44.54 14.173 44.54 8.67297 40.86C3.83297 37.64 3.83297 32.36 8.67297 29.12C12.9976 26.2526 19.4705 25.6316 24.7063 27.2572" stroke="white" stroke-width="2" stroke-linecap="round" stroke-linejoin="round" />
  <path d="M25.7642 36.353H14.1172" stroke="#B6FB0D" stroke-width="2" />
  <path d="M28.1481 24.8246L24.7937 37.0588H40.9866C42.8942 37.0588 44.5363 35.7118 44.9094 33.841L46.3404 26.6645C46.8338 24.19 44.9408 21.8823 42.4176 21.8823H32.0057C30.2039 21.8823 28.6245 23.087 28.1481 24.8246Z" fill="#B6FB0D" />
</svg>