<svg width="68" height="68" viewBox="0 0 68 68" fill="none" xmlns="http://www.w3.org/2000/svg">
<path d="M34.0002 12.1218H25.2071C10.5519 12.1218 4.68982 16.8597 4.68982 28.7043V42.9178C4.68982 54.7624 10.5519 59.5002 25.2071 59.5002H42.7933C57.4484 59.5002 63.3105 54.7624 63.3105 42.9178V33.4421" stroke="white" stroke-width="2" stroke-linecap="round" stroke-linejoin="round"/>
<path d="M45.7175 17.6385C44.6039 14.1291 45.92 9.77604 49.5644 8.59498C51.4878 7.98757 53.8837 8.49374 55.2335 10.3497C56.5158 8.42625 58.9792 7.95383 60.9026 8.59498C64.5808 9.77604 65.8968 14.1291 64.7832 17.6385C63.0285 23.1727 56.9545 26.0747 55.2672 26.0747C53.5463 26.0747 47.506 23.2401 45.7175 17.6385Z" fill="#B6FB0D"/>
<path d="M26.0286 35.8108V32.3048C26.0286 27.7802 29.1941 25.9561 33.063 28.2066L36.0644 29.9596L39.0658 31.7126C42.9348 33.9631 42.9348 37.6586 39.0658 39.909L36.0644 41.662L33.063 43.415C29.1941 45.6655 26.0286 43.8178 26.0286 39.3168V35.8108Z" fill="#B6FB0D"/>
</svg>
