<svg width="24" height="25" viewBox="0 0 24 25" fill="none" xmlns="http://www.w3.org/2000/svg">
  <path d="M12.7157 20.5H6.28426C3.06852 20.5 2 18.5047 2 16.5V8.5C2 5.49762 3.06852 4.5 6.28426 4.5H12.7157C15.9315 4.5 17 5.49762 17 8.5V16.5C17 19.5024 15.9213 20.5 12.7157 20.5Z" stroke="white" stroke-width="1.5" stroke-linecap="round" stroke-linejoin="round" />
  <path d="M19.5202 17.6L16.7402 15.65V9.34001L19.5202 7.39001C20.8802 6.44001 22.0002 7.02001 22.0002 8.69001V16.31C22.0002 17.98 20.8802 18.56 19.5202 17.6Z" stroke="white" stroke-width="1.5" stroke-linecap="round" stroke-linejoin="round" />
  <path d="M11.5 11.5C12.3284 11.5 13 10.8284 13 10C13 9.17157 12.3284 8.5 11.5 8.5C10.6716 8.5 10 9.17157 10 10C10 10.8284 10.6716 11.5 11.5 11.5Z" stroke="white" stroke-width="1.5" stroke-linecap="round" stroke-linejoin="round" />
</svg>