<svg width="33" height="32" viewBox="0 0 33 32" fill="none" xmlns="http://www.w3.org/2000/svg">
<path d="M12.6668 29.3333H20.6668C27.3335 29.3333 30.0002 26.6666 30.0002 20V12C30.0002 5.33329 27.3335 2.66663 20.6668 2.66663H12.6668C6.00016 2.66663 3.3335 5.33329 3.3335 12V20C3.3335 26.6666 6.00016 29.3333 12.6668 29.3333Z" stroke="#B6FB0D" stroke-width="2" stroke-linecap="round" stroke-linejoin="round"/>
<path d="M12.8003 16V14.0267C12.8003 11.48 14.6003 10.4533 16.8003 11.72L18.507 12.7067L20.2136 13.6933C22.4136 14.96 22.4136 17.04 20.2136 18.3067L18.507 19.2933L16.8003 20.28C14.6003 21.5467 12.8003 20.5067 12.8003 17.9733V16Z" stroke="white" stroke-width="2" stroke-miterlimit="10" stroke-linecap="round" stroke-linejoin="round"/>
</svg>
