
<svg width="37" height="36" viewBox="0 0 37 36" fill="none" xmlns="http://www.w3.org/2000/svg">
  <path d="M19.407 30H9.75976C4.93616 30 3.33337 27.0071 3.33337 24V12C3.33337 7.49644 4.93616 6 9.75976 6H19.407C24.2306 6 25.8334 7.49644 25.8334 12V24C25.8334 28.5036 24.2153 30 19.407 30Z" stroke="#040404" stroke-width="2" stroke-linecap="round" stroke-linejoin="round" />
  <path d="M29.6134 25.65L25.4434 22.725V13.26L29.6134 10.335C31.6534 8.90995 33.3334 9.77995 33.3334 12.285V23.715C33.3334 26.22 31.6534 27.09 29.6134 25.65Z" stroke="#040404" stroke-width="2" stroke-linecap="round" stroke-linejoin="round" />
  <path d="M17.5834 16.5C18.826 16.5 19.8334 15.4926 19.8334 14.25C19.8334 13.0074 18.826 12 17.5834 12C16.3407 12 15.3334 13.0074 15.3334 14.25C15.3334 15.4926 16.3407 16.5 17.5834 16.5Z" stroke="#040404" stroke-width="2" stroke-linecap="round" stroke-linejoin="round" />
</svg>