<svg width="68" height="68" viewBox="0 0 68 68" fill="none" xmlns="http://www.w3.org/2000/svg">
<path d="M43 33.7168C43 38.6945 38.9777 42.7168 34 42.7168C29.0223 42.7168 25 38.6945 25 33.7168C25 28.7391 29.0223 24.7168 34 24.7168C38.9777 24.7168 43 28.7391 43 33.7168Z" fill="#B6FB0D"/>
<path d="M34 59.5C45.2436 59.5 55.7227 53.0903 63.0167 41.9967C65.8834 37.6517 65.8834 30.3483 63.0167 26.0033C55.7227 14.9097 45.2436 8.5 34 8.5C22.7565 8.5 12.2773 14.9097 4.98335 26.0033C2.11672 30.3483 2.11672 37.6517 4.98335 41.9967C12.2773 53.0903 22.7565 59.5 34 59.5Z" stroke="white" stroke-width="2" stroke-linecap="round" stroke-linejoin="round"/>
<path d="M19 39.2168C20.8473 44.2608 25.8194 48.1464 32 49.2168" stroke="#B6FB0D" stroke-width="2" stroke-miterlimit="10" stroke-linecap="round" stroke-linejoin="round"/>
<path d="M19 31.2168C19.7688 23.9061 26.191 18.2168 34 18.2168C41.809 18.2168 48.2312 23.9206 49 31.2168" stroke="#B6FB0D" stroke-width="1.5" stroke-miterlimit="10" stroke-linecap="round" stroke-linejoin="round"/>
<path d="M37 49.2168C42.6892 48.1401 47.2629 44.2758 49 39.2168" stroke="#B6FB0D" stroke-width="2" stroke-miterlimit="10" stroke-linecap="round" stroke-linejoin="round"/>
</svg>
