<svg width="33" height="32" viewBox="0 0 33 32" fill="none" xmlns="http://www.w3.org/2000/svg">
  <path d="M12.5251 25.3333C12.5251 26.3333 12.2451 27.28 11.7517 28.08C10.8317 29.6267 9.1384 30.6667 7.19173 30.6667C5.24507 30.6667 3.55173 29.6267 2.63173 28.08C2.1384 27.28 1.8584 26.3333 1.8584 25.3333C1.8584 22.3867 4.24507 20 7.19173 20C10.1384 20 12.5251 22.3867 12.5251 25.3333Z" stroke="#B6FB0D" stroke-width="1.5" stroke-miterlimit="10" stroke-linecap="round" stroke-linejoin="round" />
  <path d="M5.11133 25.3335L6.43133 26.6535L9.27133 24.0269" stroke="#B6FB0D" stroke-width="1.5" stroke-linecap="round" stroke-linejoin="round" />
  <path d="M24.1917 9.3998C23.8717 9.34646 23.5383 9.33314 23.1917 9.33314H9.85832C9.48499 9.33314 9.12499 9.35981 8.77832 9.41314C8.96499 9.03981 9.23166 8.69318 9.55166 8.37318L13.885 4.0265C15.7117 2.21317 18.6717 2.21317 20.4983 4.0265L22.8317 6.38645C23.685 7.22645 24.1383 8.29313 24.1917 9.3998Z" stroke="#B6FB0D" stroke-width="1.5" stroke-linecap="round" stroke-linejoin="round" />
  <path d="M29.8591 16.0002V22.6668C29.8591 26.6668 27.1924 29.3335 23.1924 29.3335H10.6991C11.1124 28.9868 11.4724 28.5602 11.7524 28.0802C12.2457 27.2802 12.5257 26.3335 12.5257 25.3335C12.5257 22.3868 10.139 20.0002 7.19238 20.0002C5.59238 20.0002 4.16572 20.7068 3.19238 21.8135V16.0002C3.19238 12.3735 5.37905 9.84016 8.77905 9.41349C9.12571 9.36016 9.48572 9.3335 9.85905 9.3335H23.1924C23.5391 9.3335 23.8724 9.34681 24.1924 9.40015C27.6324 9.80015 29.8591 12.3468 29.8591 16.0002Z" stroke="white" stroke-width="1.5" stroke-linecap="round" stroke-linejoin="round" />
  <path d="M29.8591 16.6665H25.8591C24.3924 16.6665 23.1924 17.8665 23.1924 19.3332C23.1924 20.7998 24.3924 21.9998 25.8591 21.9998H29.8591" stroke="#B6FB0D" stroke-width="1.5" stroke-linecap="round" stroke-linejoin="round" />
</svg>