<svg width="32" height="32" viewBox="0 0 32 32" fill="none" xmlns="http://www.w3.org/2000/svg">
<path d="M16.1811 26H12.9449L8.02477 18.3114L3.15729 26H0L6.57768 16.2524L0.342039 7H3.52564L8.1037 14.037L12.787 7H15.8391L9.55079 16.2263L16.1811 26Z" fill="#B6FB0D"/>
<path d="M32 12.3951C32 13.733 31.6229 14.9232 30.8686 15.9657C30.1144 16.9909 29.0795 17.6164 27.764 17.8422C27.2728 17.9117 26.808 17.9552 26.3695 17.9726C25.9485 17.9899 25.4311 17.9986 24.8172 17.9986H20.8706V26H18.2132V7H26.2643C28.0183 7 29.4128 7.46045 30.4477 8.38134C31.4826 9.30224 32 10.6401 32 12.3951ZM29.3426 12.6296C29.3426 11.5176 28.9743 10.6836 28.2376 10.1276C27.5009 9.55418 26.5537 9.26749 25.396 9.26749H20.8706V15.7051H25.2645C26.5098 15.7051 27.457 15.5053 28.106 15.1056C28.9304 14.6017 29.3426 13.7764 29.3426 12.6296Z" fill="#B6FB0D"/>
</svg>
