<svg width="32" height="32" viewBox="0 0 32 32" fill="none" xmlns="http://www.w3.org/2000/svg">
  <path d="M20 1.66675C23.432 1.66675 26.0947 2.34742 27.874 4.12671C29.6531 5.90594 30.3339 8.56805 30.334 11.9998V19.9998C30.334 23.4317 29.6533 26.0945 27.874 27.8738C26.0947 29.6531 23.432 30.3337 20 30.3337H12C8.5683 30.3337 5.90619 29.6529 4.12695 27.8738C2.34766 26.0945 1.66699 23.4317 1.66699 19.9998V11.9998C1.66704 8.56795 2.34772 5.90594 4.12695 4.12671C5.90619 2.34747 8.56819 1.66679 12 1.66675H20Z" fill="black" stroke="#B6FB0D" stroke-width="2" stroke-linecap="round" stroke-linejoin="round" />
  <path d="M12.1338 16V14.0267C12.1338 11.48 13.9338 10.4533 16.1338 11.72L17.8405 12.7067L19.5471 13.6933C21.7471 14.96 21.7471 17.04 19.5471 18.3067L17.8405 19.2933L16.1338 20.28C13.9338 21.5467 12.1338 20.5067 12.1338 17.9733V16Z" fill="#B6FB0D" />
</svg>