<svg width="36" height="24" viewBox="0 0 36 24" fill="none" xmlns="http://www.w3.org/2000/svg">
<path fill-rule="evenodd" clip-rule="evenodd" d="M4.01988 23.2909C3.39226 23.1052 2.81961 22.7749 2.35023 22.3278C1.88086 21.8807 1.52855 21.3299 1.32302 20.722C0.148576 17.5798 -0.199407 4.45909 2.06248 1.86892C2.81528 1.02632 3.87813 0.50755 5.02034 0.425215C11.0883 -0.211713 29.8359 -0.126788 31.989 0.637525C32.5946 0.829317 33.1479 1.15241 33.6074 1.5826C34.0669 2.01278 34.4207 2.5389 34.6424 3.12154C35.9256 6.36987 35.9691 18.1743 34.4684 21.2952C34.0703 22.1076 33.4038 22.7657 32.5762 23.1635C30.3143 24.2675 7.02124 24.2463 4.01988 23.2909ZM13.6547 17.1339L24.5291 11.6139L13.6547 6.0514V17.1339Z" fill="#1B1B1B"/>
</svg>
