<svg width="72" height="73" viewBox="0 0 72 73" fill="none" xmlns="http://www.w3.org/2000/svg">
<rect y="0.5" width="72" height="72" rx="36" fill="#B6FB0D"/>
<path d="M36.4268 33.4867C36.1602 33.46 35.8402 33.46 35.5468 33.4867C29.2002 33.2733 24.1602 28.0733 24.1602 21.6733C24.1602 15.14 29.4402 9.83333 36.0002 9.83333C42.5335 9.83333 47.8402 15.14 47.8402 21.6733C47.8135 28.0733 42.7735 33.2733 36.4268 33.4867Z" fill="#262626"/>
<path d="M23.0927 43.3267C16.6394 47.6467 16.6394 54.6867 23.0927 58.98C30.426 63.8867 42.4527 63.8867 49.786 58.98C56.2393 54.66 56.2393 47.62 49.786 43.3267C42.4793 38.4467 30.4527 38.4467 23.0927 43.3267Z" fill="#262626"/>
</svg>
