<svg width="25" height="24" viewBox="0 0 25 24" fill="none" xmlns="http://www.w3.org/2000/svg">
<path d="M18.2397 13.55C17.8197 13.96 17.5797 14.55 17.6397 15.18C17.7297 16.26 18.7197 17.05 19.7997 17.05H21.6997V18.24C21.6997 20.31 20.0097 22 17.9397 22H6.45971C4.38971 22 2.69971 20.31 2.69971 18.24V11.51C2.69971 9.44001 4.38971 7.75 6.45971 7.75H17.9397C20.0097 7.75 21.6997 9.44001 21.6997 11.51V12.95H19.6797C19.1197 12.95 18.6097 13.17 18.2397 13.55Z" stroke="#C7C7C7" stroke-width="1.5" stroke-linecap="round" stroke-linejoin="round"/>
<path d="M2.69971 12.4101V7.8401C2.69971 6.6501 3.42971 5.59006 4.53971 5.17006L12.4797 2.17006C13.7197 1.70006 15.0497 2.62009 15.0497 3.95009V7.75008" stroke="#C7C7C7" stroke-width="1.5" stroke-linecap="round" stroke-linejoin="round"/>
<path d="M22.7585 13.9702V16.0302C22.7585 16.5802 22.3185 17.0302 21.7585 17.0502H19.7985C18.7185 17.0502 17.7285 16.2602 17.6385 15.1802C17.5785 14.5502 17.8185 13.9602 18.2385 13.5502C18.6085 13.1702 19.1185 12.9502 19.6785 12.9502H21.7585C22.3185 12.9702 22.7585 13.4202 22.7585 13.9702Z" stroke="#C7C7C7" stroke-width="1.5" stroke-linecap="round" stroke-linejoin="round"/>
<path d="M7.19971 12H14.1997" stroke="#C7C7C7" stroke-width="1.5" stroke-linecap="round" stroke-linejoin="round"/>
</svg>
