<svg width="25" height="24" viewBox="0 0 25 24" fill="none" xmlns="http://www.w3.org/2000/svg">
<path d="M9.75967 10.87C9.65967 10.86 9.53967 10.86 9.42967 10.87C7.04967 10.79 5.15967 8.84 5.15967 6.44C5.15967 3.99 7.13967 2 9.59967 2C12.0497 2 14.0397 3.99 14.0397 6.44C14.0297 8.84 12.1397 10.79 9.75967 10.87Z" stroke="#C7C7C7" stroke-width="1.5" stroke-linecap="round" stroke-linejoin="round"/>
<path d="M17.0094 4C18.9494 4 20.5094 5.57 20.5094 7.5C20.5094 9.39 19.0094 10.93 17.1394 11C17.0594 10.99 16.9694 10.99 16.8794 11" stroke="#C7C7C7" stroke-width="2" stroke-linecap="round" stroke-linejoin="round"/>
<path d="M4.75982 14.56C2.33982 16.18 2.33982 18.82 4.75982 20.43C7.50982 22.27 12.0198 22.27 14.7698 20.43C17.1898 18.81 17.1898 16.17 14.7698 14.56C12.0298 12.73 7.51982 12.73 4.75982 14.56Z" stroke="#C7C7C7" stroke-width="1.5" stroke-linecap="round" stroke-linejoin="round"/>
<path d="M18.9395 20C19.6595 19.85 20.3395 19.56 20.8995 19.13C22.4595 17.96 22.4595 16.03 20.8995 14.86C20.3495 14.44 19.6795 14.16 18.9695 14" stroke="#C7C7C7" stroke-width="2" stroke-linecap="round" stroke-linejoin="round"/>
</svg>
