<svg width="24" height="24" viewBox="0 0 24 24" fill="none" xmlns="http://www.w3.org/2000/svg">
<path d="M12.7157 20H6.28426C3.06852 20 2 18.0047 2 16V8C2 4.99762 3.06852 4 6.28426 4H12.7157C15.9315 4 17 4.99762 17 8V16C17 19.0024 15.9213 20 12.7157 20Z" stroke="#C7C7C7" stroke-width="1.5" stroke-linecap="round" stroke-linejoin="round"/>
<path d="M19.5202 17.1L16.7402 15.15V8.84001L19.5202 6.89001C20.8802 5.94001 22.0002 6.52001 22.0002 8.19001V15.81C22.0002 17.48 20.8802 18.06 19.5202 17.1Z" stroke="#C7C7C7" stroke-width="1.5" stroke-linecap="round" stroke-linejoin="round"/>
<path d="M11.5 11C12.3284 11 13 10.3284 13 9.5C13 8.67157 12.3284 8 11.5 8C10.6716 8 10 8.67157 10 9.5C10 10.3284 10.6716 11 11.5 11Z" stroke="#C7C7C7" stroke-width="1.5" stroke-linecap="round" stroke-linejoin="round"/>
</svg>
