<svg width="403" height="199" viewBox="0 0 403 199" fill="none" xmlns="http://www.w3.org/2000/svg">
<path d="M403 52.9079L327.282 126.331L357.805 71.0732H321.06L398.677 0L368.678 52.9079H403Z" fill="#B6FB0D"/>
<path d="M0.89917 127V71.2H22.1992V90.925H57.0742V71.2H78.2992V127H57.0742V105.775H22.1992V127H0.89917Z" fill="white"/>
<path d="M111.919 127V106L81.3939 71.2H106.894L123.169 90.475L139.744 71.2H163.069L133.219 106.15V127H111.919Z" fill="white"/>
<path d="M211.656 109.525H186.456V127H165.156V71.2H211.656C232.281 71.2 238.131 79.375 238.131 89.65V90.85C238.131 100.975 232.056 109.525 211.656 109.525ZM186.456 85.15V95.575H209.106C213.981 95.575 216.156 93.55 216.156 90.475V90.25C216.156 87.025 214.131 85.15 209.106 85.15H186.456Z" fill="white"/>
<path d="M242.939 71.2H304.664V84.85H263.939V91.825H303.839V105.4H263.939V113.05H305.264V127H242.939V71.2Z" fill="white"/>
<path d="M0.940146 149.08H45.3251V159.09H16.3951V164.205H44.7201V174.27H16.3951V190H0.940146V149.08Z" fill="white"/>
<path d="M78.3247 173.17L71.4497 159.09L64.7397 173.17H78.3247ZM86.5197 190L83.3297 183.4H59.9547L56.8197 190H40.9797L61.2197 149.08H82.2297L103.625 190H86.5197Z" fill="white"/>
<path d="M131.294 190.77H129.149C104.014 190.77 100.219 177.955 100.219 170.2V168.605C100.219 160.795 103.629 148.31 129.149 148.31H131.294C156.154 148.31 159.784 159.585 159.784 164.865V165.58H143.559C143.229 164.48 141.964 159.31 130.084 159.31C118.809 159.31 116.389 164.315 116.389 168.88V169.54C116.389 173.94 119.139 179.715 130.139 179.715C142.184 179.715 143.394 173.94 143.614 173.005H159.784V173.885C159.784 179.22 155.934 190.77 131.294 190.77Z" fill="white"/>
<path d="M179.215 190V160.245H161.56V149.08H212.49V160.245H194.835V190H179.215Z" fill="white"/>
<path d="M295.374 159.035V166.075H313.304C316.769 166.075 318.034 164.535 318.034 162.555V162.5C318.034 160.575 316.824 159.035 313.304 159.035H295.374ZM295.374 175.975V190H279.754V149.08H316.934C328.869 149.08 334.149 152.93 334.149 159.585V160.19C334.149 166.13 328.979 168.605 325.899 169.32C330.959 170.475 334.314 173.775 334.314 179.055V185.105C334.314 187.965 334.699 189.01 335.084 189.725V190H319.134C318.749 189.56 318.639 189.01 318.639 187.855V183.07C318.639 178.395 316.494 175.975 310.334 175.975H295.374Z" fill="white"/>
<path d="M354.419 190V174.6L332.034 149.08H350.734L362.669 163.215L374.824 149.08H391.929L370.039 174.71V190H354.419Z" fill="white"/>
<path d="M274.06 170C274.06 186.016 261.076 199 245.06 199C229.044 199 216.06 186.016 216.06 170C216.06 153.984 229.044 141 245.06 141C261.076 141 274.06 153.984 274.06 170Z" fill="#B6FB0D"/>
<path d="M262.834 170L236.173 185.393V154.607L262.834 170Z" fill="black"/>
</svg>
