<svg width="0" height="0"><symbol xmlns="http://www.w3.org/2000/svg" id="close" fill="none" viewBox="0 0 24 24"><path stroke="#fff" stroke-linecap="round" stroke-linejoin="round" stroke-width="2" d="m7 7 10 10m0-10L7 17"/></symbol><symbol xmlns="http://www.w3.org/2000/svg" id="not-user" fill="none" viewBox="0 0 72 73"><rect width="72" height="72" y=".5" fill="#B6FB0D" rx="36"/><path fill="#262626" d="M36.427 33.487a4.841 4.841 0 0 0-.88 0C29.2 33.273 24.16 28.073 24.16 21.673c0-6.533 5.28-11.84 11.84-11.84 6.533 0 11.84 5.307 11.84 11.84-.027 6.4-5.067 11.6-11.413 11.814Zm-13.334 9.84c-6.454 4.32-6.454 11.36 0 15.653 7.333 4.907 19.36 4.907 26.693 0 6.453-4.32 6.453-11.36 0-15.653-7.307-4.88-19.333-4.88-26.693 0Z"/></symbol><symbol xmlns="http://www.w3.org/2000/svg" id="x_circle" fill="none" viewBox="0 0 24 24"><path stroke="#262626" stroke-linecap="round" stroke-linejoin="round" stroke-width="2" d="m15 9-6 6m0-6 6 6m7-3c0 5.523-4.477 10-10 10S2 17.523 2 12 6.477 2 12 2s10 4.477 10 10Z"/></symbol></svg>