<svg width="0" height="0"><symbol xmlns="http://www.w3.org/2000/svg" id="circle-text" fill="none" viewBox="0 0 126 126"><circle cx="62.87" cy="62.861" r="33" fill="currentColor"/><path fill="currentColor" d="m82.87 62.86-30 17.321V45.54l30 17.32ZM52.188.804a7.335 7.335 0 0 1 2.333-.04c.767.113 1.419.333 1.953.66l-.503 1.374c-.43-.282-.957-.48-1.585-.597a5.424 5.424 0 0 0-1.949.005c-.82.146-1.424.432-1.814.858-.398.44-.545.958-.438 1.557.102.578.405 1 .907 1.269.494.28 1.214.337 2.16.17l.881-.157.196 1.102-2.56 4.615-.333-.591 6.034-1.071.243 1.37-7.278 1.293-.19-1.072 2.547-4.596.906.343-.52.092c-1.333.237-2.384.115-3.152-.366-.779-.48-1.25-1.181-1.414-2.105a3.33 3.33 0 0 1 .155-1.783c.213-.569.602-1.06 1.168-1.475.557-.402 1.308-.687 2.253-.855ZM41.85 3.612l3.452 7.746-1.447.645-5.885-4.244.584-.26-.866 7.253-1.315.586-3.453-7.745 1.272-.567 2.749 6.167-.293-.027.828-6.553.614-.274 5.487 3.86-.252.183-2.762-6.196 1.286-.574Zm-11.5 5.432 4.845 6.96-1.261.877-3.529-5.068-.739 8.04-1.142.795-4.845-6.96 1.26-.878 3.53 5.07.725-8.031 1.156-.805Zm-8.938 6.538 5.983 6.01-1.089 1.083-2.54-2.55-3.424 3.408 2.54 2.551-1.088 1.084-5.983-6.01 1.088-1.083 2.506 2.517 3.424-3.409-2.506-2.517 1.089-1.084ZM7.577 32.757a7.336 7.336 0 0 1 1.415-1.855c.565-.532 1.141-.907 1.73-1.123l.765 1.247c-.487.162-.97.453-1.45.873s-.883.93-1.206 1.532c-.394.733-.544 1.385-.452 1.955.098.585.414 1.022.95 1.31.516.278 1.036.303 1.558.075.526-.214 1.017-.743 1.471-1.589l.425-.789.986.53 2.032 4.871-.67-.106 2.902-5.397 1.226.66-3.5 6.51-.959-.515-2.025-4.85.831-.497-.25.465c-.641 1.193-1.39 1.941-2.243 2.245-.859.314-1.701.248-2.528-.196a3.33 3.33 0 0 1-1.302-1.227c-.314-.52-.458-1.13-.433-1.831.03-.687.272-1.453.727-2.298Zm-4.234 9.839 8.218 2.093-.391 1.535-6.978 1.987.158-.62 5.154 5.176-.356 1.395L.931 52.07l.343-1.35 6.543 1.667-.202.213-4.629-4.712.166-.651 6.43-1.913-.012.31-6.575-1.673.348-1.365ZM.478 54.99l8.465.498-.09 1.533-6.165-.363 5.86 5.554-.083 1.39L0 63.104l.09-1.534 6.166.363-5.86-5.538.082-1.405Zm-.4 11.068 8.428-.94.17 1.526-3.578.4.536 4.802 3.578-.4.17 1.527-8.427.94-.17-1.526 3.53-.394-.536-4.802-3.53.394-.17-1.527Zm4.877 21.504a7.336 7.336 0 0 1-.58-2.26c-.068-.773-.005-1.457.19-2.054l1.452.172c-.174.483-.245 1.043-.212 1.68a5.41 5.41 0 0 0 .456 1.895c.332.763.75 1.285 1.256 1.565.52.286 1.058.308 1.616.066.538-.234.879-.626 1.023-1.177.159-.546.047-1.259-.336-2.14l-.356-.821 1.027-.447 5.083 1.422-.498.46-2.441-5.62 1.277-.555 2.944 6.78-.998.433-5.062-1.412.124-.961.21.484c.54 1.243.665 2.293.375 3.152-.286.868-.86 1.49-1.72 1.863a3.331 3.331 0 0 1-1.77.263c-.603-.076-1.171-.34-1.706-.794-.52-.45-.972-1.114-1.354-1.994Zm5.11 9.414 6.736-5.15.962 1.258-2.767 6.708-.388-.509 7.256-.835.875 1.144-6.737 5.151-.845-1.106 5.364-4.101.04.29-6.566.711-.408-.534 2.487-6.231.235.203-5.39 4.12-.854-1.119Zm7.943 9.936 5.665-6.31 1.143 1.026-4.126 4.595 7.995-1.121 1.036.929-5.665 6.311-1.143-1.027 4.126-4.595-7.984 1.132-1.047-.94Zm8.413 7.201 4.466-7.209 1.306.809-1.896 3.06 4.108 2.545 1.895-3.06 1.306.808-4.465 7.209-1.306-.808 1.87-3.02-4.107-2.545-1.87 3.02-1.307-.809Zm19.904 9.495a7.339 7.339 0 0 1-2.132-.946c-.649-.426-1.146-.9-1.493-1.423l1.035-1.033c.27.436.666.839 1.186 1.209.52.369 1.11.642 1.77.817.804.213 1.473.208 2.006-.014.547-.231.898-.639 1.054-1.227.15-.567.054-1.078-.288-1.533-.33-.463-.959-.817-1.887-1.064l-.866-.229.287-1.083 4.267-3.106.053.676-5.923-1.571.356-1.345 7.145 1.895-.279 1.052-4.247 3.094-.677-.693.51.136c1.31.347 2.211.901 2.705 1.661.504.762.635 1.597.395 2.505a3.332 3.332 0 0 1-.892 1.551c-.433.426-.993.708-1.68.845-.675.13-1.477.072-2.404-.174Zm10.556 1.822.149-8.479 1.583.028 3.538 6.335-.64-.011 3.853-6.206 1.44.025-.148 8.479-1.392-.024.118-6.751.253.148-3.522 5.587-.672-.011-3.338-5.82.305-.058-.12 6.783-1.407-.025Zm12.719-.056-1.44-8.356 1.514-.261 1.048 6.086 4.076-6.969 1.372-.237 1.44 8.357-1.514.261-1.049-6.086-4.06 6.966-1.387.239Zm10.866-2.134-2.871-7.98 1.445-.52 1.219 3.388 4.547-1.636-1.219-3.387 1.445-.52 2.87 7.979-1.444.52-1.203-3.342-4.546 1.635 1.202 3.343-1.445.52Zm19.794-9.721a7.341 7.341 0 0 1-2.066 1.084c-.737.244-1.417.34-2.042.288l-.168-1.453c.51.059 1.072-.001 1.684-.18a5.41 5.41 0 0 0 1.739-.88c.666-.498 1.078-1.025 1.235-1.582.158-.572.056-1.101-.308-1.588-.352-.47-.812-.711-1.382-.725-.567-.029-1.235.244-2.004.819l-.718.537-.67-.898.213-5.273.563.379-4.909 3.669-.833-1.115 5.92-4.426.652.871-.21 5.251-.963.101.422-.316c1.085-.811 2.08-1.174 2.981-1.09.911.079 1.648.494 2.21 1.246.376.504.597 1.058.663 1.661.065.604-.062 1.218-.381 1.843-.317.61-.859 1.202-1.628 1.777Zm7.973-7.156-6.553-5.382 1.006-1.224 7.162 1.162-.406.494-2.47-6.874.914-1.113 6.552 5.383-.883 1.075-5.218-4.285.274-.107 2.191 6.231-.426.519-6.635-.997.144-.276 5.242 4.306-.894 1.088Zm7.854-10.004-7.452-4.047.733-1.35 5.427 2.947-2.946-7.517.665-1.223 7.452 4.047-.733 1.35-5.428-2.948 2.954 7.503-.672 1.238Zm5.056-9.852-8.041-2.693.488-1.456 3.413 1.143 1.534-4.582-3.413-1.143.487-1.457 8.042 2.692-.488 1.457-3.368-1.128-1.534 4.582 3.368 1.128-.488 1.457Zm4.654-21.556a7.339 7.339 0 0 1-.428 2.294c-.264.73-.611 1.323-1.039 1.782l-1.244-.769c.362-.364.662-.841.901-1.433.24-.591.368-1.228.386-1.91.022-.832-.138-1.482-.478-1.95-.35-.478-.829-.725-1.437-.741-.586-.015-1.061.197-1.425.635-.374.428-.573 1.122-.598 2.081l-.023.896-1.12-.029-4.008-3.433.645-.207-.158 6.126-1.392-.036.192-7.39 1.087.028 3.993 3.417-.517.819.013-.528c.036-1.354.366-2.36.991-3.015.625-.667 1.407-.988 2.346-.964a3.327 3.327 0 0 1 1.715.509c.515.322.918.802 1.211 1.44.283.626.411 1.419.387 2.378Zm-.659-10.694-8.286 1.804-.337-1.548 5.353-4.898.136.625-6.925-2.325-.306-1.407 8.286-1.803.296 1.36-6.598 1.436.087-.28 6.247 2.144.142.656-4.896 4.587-.127-.284 6.628-1.443.3 1.376Zm-2.979-12.364-7.797 3.333-.604-1.412 5.679-2.428-7.723-2.353-.547-1.28 7.797-3.334.604 1.412-5.679 2.428 7.717 2.339.553 1.295Zm-4.593-10.077-7.088 4.655-.843-1.284 3.009-1.976-2.652-4.039-3.01 1.976-.843-1.283 7.088-4.655.843 1.283-2.968 1.95 2.652 4.04 2.969-1.95.843 1.283Zm-14.037-17.01a7.341 7.341 0 0 1 1.532 1.76c.407.66.657 1.3.75 1.921l-1.376.497c-.06-.51-.248-1.042-.562-1.597a5.443 5.443 0 0 0-1.257-1.49c-.638-.533-1.246-.812-1.824-.837-.593-.022-1.084.2-1.474.666-.377.45-.506.953-.388 1.51.103.56.522 1.147 1.259 1.763l.687.575-.719.859-5.18 1.006.238-.634 4.7 3.931-.893 1.068-5.67-4.743.699-.834 5.158-1.005.32.915-.405-.34c-1.04-.868-1.621-1.752-1.747-2.65-.133-.903.101-1.716.703-2.436a3.33 3.33 0 0 1 1.465-1.027c.573-.203 1.199-.22 1.881-.054.666.168 1.367.56 2.103 1.175Zm-8.784-6.131-3.73 7.616-1.423-.697-.517-7.237.574.282-6.12 3.986-1.294-.634 3.73-7.616 1.25.613-2.97 6.064-.166-.242 5.559-3.567.603.296.556 6.686-.3-.076 2.983-6.093 1.264.62ZM83.2 3.339l-2.2 8.19-1.484-.399 1.602-5.965-6.624 4.616-1.344-.361 2.2-8.19 1.483.399-1.602 5.964 6.608-4.62 1.36.366ZM72.44.713l-.764 8.445-1.53-.138.324-3.586L65.658 5l-.325 3.585-1.53-.139L64.569 0l1.53.139-.32 3.537 4.812.436.32-3.538 1.53.139Z"/></symbol></svg>