<?xml version="1.0" standalone="no"?>
<!DOCTYPE svg PUBLIC "-//W3C//DTD SVG 20010904//EN"
 "http://www.w3.org/TR/2001/REC-SVG-20010904/DTD/svg10.dtd">
<svg version="1.0" xmlns="http://www.w3.org/2000/svg"
 width="490.000000pt" height="498.000000pt" viewBox="0 0 490.000000 498.000000"
 preserveAspectRatio="xMidYMid meet">

<g transform="translate(0.000000,498.000000) scale(0.100000,-0.100000)"
fill="#3C3C3C" stroke="none">
<path d="M1050 4187 l-764 -702 362 -3 c199 -1 362 -5 362 -8 0 -4 -436 -797
-563 -1024 l-31 -55 77 70 c42 39 377 363 746 720 l669 650 -334 3 c-221 1
-334 6 -334 13 0 5 125 231 279 502 284 502 304 538 299 536 -2 0 -347 -316
-768 -702z"/>
<path d="M3110 1867 l-764 -702 362 -3 c199 -1 362 -5 362 -8 0 -4 -436 -797
-563 -1024 l-31 -55 77 70 c42 39 377 363 746 720 l669 650 -334 3 c-221 1
-334 6 -334 13 0 5 125 231 279 502 284 502 304 538 299 536 -2 0 -347 -316
-768 -702z"/>
</g>
</svg>
