<svg width="0" height="0"><symbol xmlns="http://www.w3.org/2000/svg" xml:space="preserve" id="fb" viewBox="73 0 267 266.9"><path id="Blue_1_" fill="currentColor" d="M321.1 262.3c7.9 0 14.2-6.4 14.2-14.2V18.8c0-7.9-6.4-14.2-14.2-14.2H91.8C84 4.6 77.6 11 77.6 18.8v229.3c0 7.9 6.4 14.2 14.2 14.2h229.3z"/><path id="f" fill="currentColor" d="M255.4 262.3v-99.8h33.5l5-38.9h-38.5V98.8c0-11.3 3.1-18.9 19.3-18.9h20.6V45c-3.6-.5-15.8-1.5-30-1.5-29.7 0-50 18.1-50 51.4v28.7h-33.6v38.9h33.6v99.8h40.1z"/></symbol><symbol xmlns="http://www.w3.org/2000/svg" id="like" fill="none" viewBox="0 0 24 24"><path stroke="currentColor" stroke-linecap="round" stroke-linejoin="round" stroke-width="2" d="M3 10a1 1 0 0 1 1-1h3v12H4a1 1 0 0 1-1-1V10Zm4 1v8l1.992 1.328a4 4 0 0 0 2.22.672h5.247a3 3 0 0 0 2.959-2.507l1.194-7.164A2 2 0 0 0 18.639 9H14"/><path stroke="currentColor" stroke-linecap="round" stroke-linejoin="round" stroke-width="2" d="m14 9 .687-3.436a1.807 1.807 0 0 0-1.2-2.068v0a1.807 1.807 0 0 0-2.188.906L8 11H7"/></symbol><symbol xmlns="http://www.w3.org/2000/svg" id="link" fill="none" viewBox="0 0 260 260"><rect width="260" height="260" fill="currentColor" rx="40"/><path fill="currentColor" fill-rule="evenodd" d="M109.808 134.213a30.216 30.216 0 0 0 6.45 9.527c11.831 11.832 31.014 11.832 42.845 0l26.451-26.451c11.832-11.831 11.832-31.014 0-42.845-11.831-11.832-31.014-11.832-42.845 0l-26.43 26.43a37.486 37.486 0 0 1 16.086.883l18.829-18.828c7.145-7.145 18.73-7.145 25.875 0s7.145 18.73 0 25.875l-26.451 26.451c-7.145 7.145-18.73 7.145-25.875 0a18.213 18.213 0 0 1-4.843-8.61 11.237 11.237 0 0 0-5.572 3.048l-4.52 4.52Z" clip-rule="evenodd"/><path fill="currentColor" fill-rule="evenodd" d="M74.425 142.73c-11.832 11.831-11.832 31.014 0 42.845 11.831 11.832 31.014 11.832 42.845 0l26.451-26.451.093-.093a37.5 37.5 0 0 1-16.089-.881l-18.94 18.94c-7.145 7.145-18.73 7.145-25.875 0s-7.145-18.73 0-25.875l26.451-26.451c7.145-7.145 18.73-7.145 25.875 0a18.212 18.212 0 0 1 4.821 8.524 11.245 11.245 0 0 0 5.701-3.076l4.411-4.41a30.199 30.199 0 0 0-6.448-9.523c-11.831-11.832-31.014-11.832-42.845 0L74.425 142.73Z" clip-rule="evenodd"/><path fill="currentColor" fill-rule="evenodd" d="M103 173a2 2 0 0 1-2-2v-25a2 2 0 1 1 4 0v25a2 2 0 0 1-2 2Zm9.032-7a2 2 0 0 1-2-2v-13a2 2 0 1 1 4 0v13a2 2 0 0 1-2 2ZM94 175a2 2 0 0 1-2-2v-21a2 2 0 1 1 4 0v21a2 2 0 0 1-2 2Zm-8-5a2 2 0 0 1-2-2v-8a2 2 0 1 1 4 0v8a2 2 0 0 1-2 2Z" clip-rule="evenodd"/></symbol><symbol xmlns="http://www.w3.org/2000/svg" xml:space="preserve" id="ok" viewBox="0 0 389.404 387.417"><path fill="currentColor" d="M389.404 330.724c0 31.312-25.383 56.693-56.693 56.693H56.693C25.382 387.417 0 362.036 0 330.724V56.693C0 25.382 25.382 0 56.693 0h276.018c31.311 0 56.693 25.382 56.693 56.693v274.031z"/><path fill="currentColor" d="M387.404 329.317c0 30.989-25.122 56.11-56.111 56.11H58.11c-30.989 0-56.11-25.121-56.11-56.11V58.1C2 27.111 27.122 1.99 58.11 1.99h273.183c30.989 0 56.111 25.122 56.111 56.11v271.217z"/><path fill="currentColor" d="M194.485 57.901c-38.593 0-69.878 31.286-69.878 69.878 0 38.593 31.285 69.881 69.878 69.881s69.878-31.288 69.878-69.881c0-38.592-31.285-69.878-69.878-69.878zm0 98.766c-15.953 0-28.886-12.934-28.886-28.887s12.933-28.886 28.886-28.886 28.886 12.933 28.886 28.886-12.933 28.887-28.886 28.887z"/><g fill="currentColor"><path d="M219.155 253.262c27.975-5.699 44.739-18.947 45.626-19.658 8.186-6.565 9.501-18.523 2.936-26.71-6.564-8.186-18.521-9.501-26.709-2.937-.173.14-18.053 13.856-47.472 13.876-29.418-.02-47.676-13.736-47.849-13.876-8.188-6.564-20.145-5.249-26.709 2.937-6.565 8.187-5.25 20.145 2.936 26.71.899.721 18.355 14.314 47.114 19.879l-40.081 41.888c-7.284 7.554-7.065 19.582.489 26.866a18.936 18.936 0 0 0 13.187 5.322c4.978 0 9.951-1.945 13.679-5.812l37.235-39.665 40.996 39.922c7.428 7.416 19.456 7.404 26.87-.021 7.414-7.426 7.405-19.456-.021-26.87l-42.227-41.851z"/><path d="M193.536 217.832c-.047 0 .046.001 0 .002-.046-.001.047-.002 0-.002z"/></g></symbol><symbol xmlns="http://www.w3.org/2000/svg" xml:space="preserve" id="telegram" viewBox="0 0 100 100"><path id="Layer_2" d="M88.723 12.142C76.419 17.238 23.661 39.091 9.084 45.047c-9.776 3.815-4.053 7.392-4.053 7.392s8.345 2.861 15.499 5.007c7.153 2.146 10.968-.238 10.968-.238l33.62-22.652c11.922-8.107 9.061-1.431 6.199 1.431-6.199 6.2-16.452 15.975-25.036 23.844-3.815 3.338-1.908 6.199-.238 7.63 6.199 5.246 23.129 15.976 24.082 16.691 5.037 3.566 14.945 8.699 16.452-2.146l5.961-37.435c1.908-12.637 3.815-24.321 4.053-27.659.716-8.108-7.868-4.77-7.868-4.77z"/></symbol><symbol xmlns="http://www.w3.org/2000/svg" id="vk" fill="none" viewBox="0 0 48 48"><path fill="currentColor" d="M0 23.04C0 12.179 0 6.748 3.374 3.374 6.748 0 12.18 0 23.04 0h1.92c10.861 0 16.292 0 19.666 3.374C48 6.748 48 12.18 48 23.04v1.92c0 10.861 0 16.292-3.374 19.666C41.252 48 35.82 48 24.96 48h-1.92c-10.861 0-16.292 0-19.666-3.374C0 41.252 0 35.82 0 24.96v-1.92Z"/><path fill="currentColor" d="M25.54 34.58c-10.94 0-17.18-7.5-17.44-19.98h5.48c.18 9.16 4.22 13.04 7.42 13.84V14.6h5.16v7.9c3.16-.34 6.48-3.94 7.6-7.9h5.16c-.86 4.88-4.46 8.48-7.02 9.96 2.56 1.2 6.66 4.34 8.22 10.02h-5.68c-1.22-3.8-4.26-6.74-8.28-7.14v7.14h-.62Z"/></symbol></svg>