<svg xmlns="http://www.w3.org/2000/svg" width="260" height="260" fill="none">
    <rect width="260" height="260" fill="#0073AA" rx="40"/>

    <path fill="#fff" fill-rule="evenodd" transform="translate(0, -28)" d="M109.808 162.213a30.216 30.216 0 0 0 6.45 9.527c11.831 11.832 31.014 11.832 42.845 0l26.451-26.451c11.832-11.831 11.832-31.014 0-42.845-11.831-11.832-31.014-11.832-42.845 0l-26.43 26.43a37.486 37.486 0 0 1 16.086.883l18.829-18.828c7.145-7.145 18.73-7.145 25.875 0s7.145 18.73 0 25.875l-26.451 26.451c-7.145 7.145-18.73 7.145-25.875 0a18.213 18.213 0 0 1-4.843-8.61 11.237 11.237 0 0 0-5.572 3.048l-4.52 4.52Z" clip-rule="evenodd"/>
    <path fill="#fff" fill-rule="evenodd" transform="translate(0, -28)" d="M74.425 170.73c-11.832 11.831-11.832 31.014 0 42.845 11.831 11.832 31.014 11.832 42.845 0l26.451-26.451.093-.093a37.5 37.5 0 0 1-16.089-.881l-18.94 18.94c-7.145 7.145-18.73 7.145-25.875 0s-7.145-18.73 0-25.875l26.451-26.451c7.145-7.145 18.73-7.145 25.875 0a18.212 18.212 0 0 1 4.821 8.524 11.245 11.245 0 0 0 5.701-3.076l4.411-4.41a30.199 30.199 0 0 0-6.448-9.523c-11.831-11.832-31.014-11.832-42.845 0L74.425 170.73Z" clip-rule="evenodd"/>
    <path fill="#fff" fill-rule="evenodd" transform="translate(0, -28)" d="M103 201a2 2 0 0 1-2-2v-25a2 2 0 1 1 4 0v25a2 2 0 0 1-2 2ZM112.032 194a2 2 0 0 1-2-2v-13a2 2 0 1 1 4 0v13a2 2 0 0 1-2 2ZM94 203a2 2 0 0 1-2-2v-21a2 2 0 1 1 4 0v21a2 2 0 0 1-2 2ZM86 198a2 2 0 0 1-2-2v-8a2 2 0 1 1 4 0v8a2 2 0 0 1-2 2Z" clip-rule="evenodd"/>
</svg>