<svg width="126" height="126" viewBox="0 0 126 126" fill="none" xmlns="http://www.w3.org/2000/svg">
<circle cx="62.8701" cy="62.8606" r="33" fill="#B6FB0D"/>
<path d="M82.8701 62.8605L52.8701 80.181L52.8701 45.54L82.8701 62.8605Z" fill="#262626"/>
<path d="M52.1881 0.80411C52.9653 0.666123 53.7429 0.652644 54.521 0.763672C55.2885 0.876565 55.9397 1.09679 56.4745 1.42433L55.9708 2.79753C55.5417 2.51622 55.0135 2.31749 54.3862 2.20137C53.7589 2.08524 53.1092 2.08684 52.437 2.20618C51.6179 2.35163 51.0132 2.63773 50.6232 3.06449C50.2245 3.50362 50.0782 4.0225 50.1845 4.62114C50.2871 5.19877 50.5897 5.62172 51.0923 5.88998C51.5863 6.17061 52.3059 6.22702 53.2511 6.0592L54.1333 5.90257L54.3291 7.00532L51.7684 11.62L51.436 11.029L57.4696 9.95778L57.713 11.3283L50.4348 12.6206L50.2446 11.5493L52.7924 6.95317L53.6983 7.29608L53.1784 7.38838C51.8446 7.6252 50.7937 7.50303 50.0258 7.02186C49.2473 6.54256 48.7761 5.84081 48.612 4.9166C48.5019 4.29695 48.5535 3.70278 48.7667 3.13409C48.9799 2.5654 49.3693 2.07376 49.9349 1.65917C50.4918 1.25695 51.2429 0.971931 52.1881 0.80411Z" fill="white"/>
<path d="M41.8494 3.61239L45.3019 11.3577L43.8552 12.0026L37.9696 7.75926L38.5542 7.49869L37.6881 14.7517L36.3729 15.3379L32.9203 7.59259L34.1917 7.02585L36.9407 13.1929L36.6483 13.1656L37.4761 6.61286L38.0899 6.33926L43.577 10.1997L43.3254 10.3819L40.5634 4.18564L41.8494 3.61239Z" fill="white"/>
<path d="M30.3497 9.04423L35.1946 16.0039L33.934 16.8815L30.4054 11.8127L29.6662 19.8524L28.5238 20.6477L23.6789 13.688L24.9395 12.8104L28.4681 17.8792L29.1941 9.84866L30.3497 9.04423Z" fill="white"/>
<path d="M21.4117 15.5821L27.3949 21.5914L26.3064 22.6752L23.7664 20.1241L20.3422 23.5333L22.8822 26.0845L21.7937 27.1682L15.8106 21.1589L16.899 20.0751L19.4052 22.5922L22.8294 19.183L20.3232 16.6658L21.4117 15.5821Z" fill="white"/>
<path d="M7.57697 32.7567C7.95076 32.0615 8.42248 31.4432 8.99214 30.9017C9.55675 30.3696 10.1334 29.9954 10.722 29.779L11.4868 31.0258C11 31.188 10.5165 31.4791 10.0363 31.8991C9.55618 32.3191 9.15446 32.8298 8.83119 33.4311C8.43721 34.1639 8.28663 34.8156 8.37947 35.3863C8.47664 35.9714 8.79299 36.4079 9.3285 36.6958C9.84521 36.9736 10.3647 36.9986 10.8868 36.7707C11.4134 36.5572 11.9039 36.0277 12.3585 35.1822L12.7828 34.393L13.7693 34.9234L15.801 39.7942L15.1312 39.6884L18.0331 34.2911L19.2591 34.9502L15.7587 41.4609L14.8004 40.9457L12.7752 36.0965L13.6061 35.5986L13.356 36.0636C12.7146 37.2568 11.9669 38.0054 11.1132 38.3093C10.2544 38.6227 9.41167 38.5571 8.58492 38.1126C8.03062 37.8146 7.59654 37.4056 7.28267 36.8857C6.9688 36.3657 6.82465 35.7553 6.85021 35.0546C6.88012 34.3682 7.12238 33.6023 7.57697 32.7567Z" fill="white"/>
<path d="M3.34295 42.5962L11.5607 44.6888L11.1698 46.2238L4.19158 48.2113L4.34951 47.591L9.50364 52.767L9.14829 54.1625L0.930543 52.0699L1.27404 50.7209L7.81724 52.3871L7.61452 52.5996L2.98612 47.8878L3.15195 47.2366L9.5827 45.3243L9.5697 45.6347L2.9955 43.9607L3.34295 42.5962Z" fill="white"/>
<path d="M0.477837 54.9896L8.94317 55.4881L8.85287 57.0214L2.68755 56.6584L8.54717 62.2124L8.46533 63.602L0 63.1035L0.0902999 61.5702L6.25562 61.9332L0.395062 56.3951L0.477837 54.9896Z" fill="white"/>
<path d="M0.0781306 66.0581L8.50581 65.1175L8.67617 66.644L5.09838 67.0433L5.63432 71.8455L9.2121 71.4462L9.38247 72.9727L0.954786 73.9133L0.784424 72.3868L4.31451 71.9928L3.77858 67.1906L0.248493 67.5846L0.0781306 66.0581Z" fill="white"/>
<path d="M4.95503 87.5619C4.64063 86.8378 4.44724 86.0845 4.37486 85.3019C4.30674 84.5291 4.36999 83.8446 4.56462 83.2484L6.01719 83.4201C5.84302 83.9027 5.77217 84.4626 5.80463 85.0997C5.83709 85.7368 5.98928 86.3685 6.26119 86.9947C6.59259 87.7578 7.01107 88.2796 7.51664 88.5602C8.03623 88.8462 8.57488 88.8681 9.13256 88.6259C9.67068 88.3923 10.012 87.9999 10.1564 87.4487C10.3148 86.9031 10.2029 86.1901 9.8205 85.3095L9.46361 84.4876L10.4909 84.0415L15.5736 85.4626L15.0758 85.923L12.6349 80.3021L13.9117 79.7477L16.856 86.528L15.8581 86.9613L10.7965 85.5485L10.92 84.5878L11.1303 85.0721C11.6699 86.3147 11.7947 87.3653 11.5047 88.2238C11.2189 89.0922 10.6455 89.7133 9.78454 90.0872C9.20728 90.3378 8.61734 90.4254 8.01472 90.3499C7.41209 90.2743 6.84357 90.0095 6.30916 89.5555C5.78879 89.1069 5.33741 88.4424 4.95503 87.5619Z" fill="white"/>
<path d="M10.0646 96.9764L16.8013 91.8259L17.7634 93.0843L14.9965 99.7917L14.6078 99.2833L21.8644 98.4482L22.739 99.5921L16.0023 104.743L15.1569 103.637L20.5208 99.5358L20.5619 99.8267L13.9953 100.537L13.5872 100.003L16.0737 93.7719L16.3091 93.9746L10.9198 98.095L10.0646 96.9764Z" fill="white"/>
<path d="M18.0078 106.912L23.6729 100.602L24.8159 101.628L20.69 106.223L28.6853 105.102L29.7211 106.031L24.056 112.342L22.913 111.315L27.0389 106.72L19.0555 107.852L18.0078 106.912Z" fill="white"/>
<path d="M26.4214 114.113L30.887 106.904L32.1927 107.713L30.297 110.773L34.4047 113.318L36.3005 110.258L37.6063 111.066L33.1407 118.275L31.8349 117.467L33.7054 114.447L29.5976 111.902L27.7272 114.922L26.4214 114.113Z" fill="white"/>
<path d="M46.3255 123.608C45.5626 123.406 44.8517 123.09 44.1929 122.662C43.5444 122.236 43.0467 121.762 42.6997 121.239L43.7352 120.206C44.0058 120.642 44.401 121.045 44.921 121.415C45.4409 121.784 46.0308 122.057 46.6906 122.232C47.4948 122.445 48.1637 122.44 48.6973 122.218C49.2439 121.987 49.5952 121.579 49.7511 120.991C49.9015 120.424 49.8053 119.913 49.4626 119.458C49.1328 118.995 48.504 118.641 47.5761 118.394L46.7101 118.165L46.9973 117.082L51.2642 113.976L51.3167 114.652L45.3935 113.081L45.7504 111.736L52.8953 113.631L52.6163 114.683L48.3689 117.777L47.6919 117.084L48.2023 117.22C49.5116 117.567 50.4132 118.121 50.9068 118.881C51.4107 119.643 51.5424 120.478 51.3017 121.386C51.1403 121.994 50.8431 122.511 50.4101 122.937C49.9771 123.363 49.4168 123.645 48.7292 123.782C48.0546 123.912 47.2534 123.854 46.3255 123.608Z" fill="white"/>
<path d="M56.8811 125.43L57.0296 116.951L58.6134 116.979L62.151 123.314L61.5111 123.303L65.3644 117.097L66.8041 117.122L66.6556 125.601L65.2638 125.577L65.3821 118.826L65.6355 118.974L62.1131 124.561L61.4412 124.55L58.1026 118.73L58.4077 118.672L58.2889 125.455L56.8811 125.43Z" fill="white"/>
<path d="M69.6 125.374L68.1599 117.018L69.6736 116.757L70.7224 122.843L74.7981 115.874L76.1699 115.637L77.6099 123.994L76.0962 124.255L75.0474 118.169L70.9875 125.135L69.6 125.374Z" fill="white"/>
<path d="M80.4656 123.24L77.5949 115.26L79.0402 114.74L80.2589 118.128L84.8056 116.492L83.587 113.105L85.0323 112.585L87.9029 120.564L86.4576 121.084L85.2552 117.742L80.7085 119.377L81.9109 122.72L80.4656 123.24Z" fill="white"/>
<path d="M100.26 113.519C99.6274 113.991 98.9388 114.353 98.1939 114.603C97.4575 114.847 96.7768 114.943 96.1518 114.891L95.9845 113.438C96.4943 113.497 97.0555 113.437 97.668 113.258C98.2806 113.08 98.8603 112.787 99.407 112.378C100.073 111.88 100.485 111.353 100.642 110.796C100.8 110.224 100.698 109.695 100.334 109.208C99.9824 108.738 99.522 108.497 98.9525 108.483C98.385 108.454 97.7169 108.727 96.9479 109.302L96.2303 109.839L95.5597 108.941L95.7729 103.668L96.3355 104.047L91.4273 107.716L90.5938 106.601L96.5145 102.175L97.1659 103.046L96.9559 108.297L95.9926 108.398L96.4155 108.082C97.5005 107.271 98.4942 106.908 99.3964 106.992C100.307 107.071 101.044 107.486 101.606 108.238C101.982 108.742 102.203 109.296 102.269 109.899C102.334 110.503 102.207 111.117 101.888 111.742C101.571 112.352 101.029 112.944 100.26 113.519Z" fill="white"/>
<path d="M108.233 106.363L101.68 100.981L102.686 99.7566L109.848 100.919L109.442 101.413L106.972 94.539L107.886 93.4263L114.438 98.8087L113.555 99.8844L108.337 95.5987L108.611 95.4923L110.802 101.723L110.376 102.242L103.741 101.245L103.885 100.969L109.127 105.275L108.233 106.363Z" fill="white"/>
<path d="M116.087 96.3586L108.635 92.3118L109.368 90.962L114.795 93.9093L111.849 86.3923L112.514 85.169L119.966 89.2158L119.233 90.5656L113.805 87.6184L116.759 95.1213L116.087 96.3586Z" fill="white"/>
<path d="M121.143 86.5065L113.102 83.8142L113.59 82.3577L117.003 83.5007L118.537 78.9187L115.124 77.7757L115.611 76.3192L123.653 79.0115L123.165 80.468L119.797 79.3403L118.263 83.9223L121.631 85.05L121.143 86.5065Z" fill="white"/>
<path d="M125.797 64.9515C125.776 65.7405 125.634 66.5051 125.369 67.2451C125.105 67.9745 124.758 68.5684 124.33 69.0268L123.086 68.2583C123.448 67.8942 123.748 67.4165 123.987 66.8252C124.227 66.2339 124.355 65.597 124.373 64.9146C124.395 64.0828 124.235 63.4332 123.895 62.9655C123.545 62.4869 123.066 62.2398 122.458 62.224C121.872 62.2088 121.397 62.4206 121.033 62.8593C120.659 63.2871 120.46 63.9808 120.435 64.9405L120.412 65.8362L119.292 65.8072L115.284 62.3741L115.929 62.1668L115.771 68.2927L114.379 68.2566L114.571 60.8671L115.658 60.8953L119.651 64.312L119.134 65.1308L119.147 64.603C119.183 63.2488 119.513 62.2437 120.138 61.5877C120.763 60.921 121.545 60.5998 122.484 60.6241C123.113 60.6404 123.685 60.81 124.199 61.1328C124.714 61.4555 125.117 61.9355 125.41 62.5726C125.693 63.1988 125.821 63.9918 125.797 64.9515Z" fill="white"/>
<path d="M125.138 54.2572L116.852 56.0608L116.515 54.513L121.868 49.6145L122.004 50.2399L115.079 47.9155L114.773 46.5084L123.059 44.7049L123.355 46.065L116.757 47.5011L116.844 47.2203L123.091 49.3647L123.233 50.0214L118.337 54.6077L118.21 54.3243L124.838 52.8814L125.138 54.2572Z" fill="white"/>
<path d="M122.159 41.8926L114.362 45.2263L113.758 43.8139L119.437 41.386L111.714 39.0326L111.167 37.7527L118.964 34.419L119.568 35.8314L113.889 38.2593L121.606 40.598L122.159 41.8926Z" fill="white"/>
<path d="M117.566 31.8161L110.478 36.4712L109.635 35.1874L112.644 33.2111L109.992 29.1723L106.982 31.1485L106.139 29.8646L113.227 25.2095L114.07 26.4934L111.102 28.4433L113.754 32.4821L116.723 30.5322L117.566 31.8161Z" fill="white"/>
<path d="M103.529 14.8055C104.135 15.3119 104.645 15.8988 105.061 16.566C105.468 17.2264 105.718 17.8668 105.811 18.487L104.435 18.9843C104.375 18.4747 104.187 17.9424 103.873 17.3874C103.558 16.8323 103.139 16.3357 102.616 15.8977C101.978 15.3639 101.37 15.0848 100.792 15.0605C100.199 15.0376 99.708 15.2593 99.3179 15.7256C98.9414 16.1756 98.8121 16.6793 98.9299 17.2368C99.0326 17.7955 99.4522 18.3829 100.189 18.9989L100.876 19.5738L100.157 20.4328L94.9765 21.4393L95.2153 20.8046L99.9156 24.7365L99.0225 25.8042L93.3526 21.0613L94.0507 20.2268L99.2089 19.2224L99.5288 20.1367L99.1238 19.7979C98.0848 18.9287 97.5026 18.0454 97.3772 17.1478C97.2437 16.2435 97.4781 15.4313 98.0803 14.7113C98.4841 14.2286 98.9723 13.886 99.545 13.6836C100.118 13.4812 100.744 13.4632 101.426 13.6298C102.092 13.7976 102.793 14.1895 103.529 14.8055Z" fill="white"/>
<path d="M94.7445 8.67521L91.0148 16.291L89.5922 15.5943L89.0746 8.35702L89.6493 8.6385L83.5283 12.6246L82.2351 11.9912L85.9648 4.37548L87.2149 4.98772L84.2452 11.0516L84.0787 10.8097L89.6378 7.24324L90.2413 7.53881L90.7974 14.2248L90.4962 14.1485L93.48 8.05594L94.7445 8.67521Z" fill="white"/>
<path d="M83.1992 3.33884L80.9994 11.5285L79.5159 11.1301L81.1181 5.1655L74.494 9.7811L73.1496 9.41999L75.3495 1.2303L76.8329 1.62876L75.2307 7.59333L81.8394 2.97358L83.1992 3.33884Z" fill="white"/>
<path d="M72.4402 0.712717L71.6755 9.15817L70.1458 9.01967L70.4704 5.43433L65.6581 4.99862L65.3335 8.58396L63.8037 8.44545L64.5684 0L66.0981 0.138504L65.7778 3.67603L70.5901 4.11174L70.9104 0.574213L72.4402 0.712717Z" fill="white"/>
</svg>
